Sporniket-Nostalgie2-Console.sfdir
StartChar: dollar
Encoding: 36 36 74
Width: 512
VWidth: 0
InSpiro: 1
Flags: HMW
LayerCount: 2
Fore
SplineSet
306 8 m 1
 206 8 l 1
 206 172 l 1
 306 172 l 1
 306 8 l 1
  Spiro
    306 8 v
    206 8 v
    206 172 v
    306 172 v
    0 0 z
  EndSpiro
206 888 m 1
 306 888 l 1
 306 724 l 1
 206 724 l 1
 206 888 l 1
  Spiro
    206 888 v
    306 888 v
    306 724 v
    206 724 v
    0 0 z
  EndSpiro
288 241 m 0
 304.220124929 247.442990912 318.859655257 258.031819501 329.546473335 271.830243468 c 0
 340.233291414 285.628667435 346.948421712 302.578783977 348 320 c 0
 348.695617361 331.524106622 346.892765174 343.233133102 342.419670575 353.876456908 c 0
 337.946575975 364.519780714 330.769350552 374.023466492 321.698907559 381.166013717 c 0
 312.628464567 388.308560941 301.756950876 393.004201786 290.468512242 395.424959963 c 0
 279.180073609 397.84571814 267.545081937 398 256 398 c 2
 252 398 l 1
 213 498 l 1
 256 498 l 2
 281.099472142 498 306.458789894 497.514557157 330.790873183 491.355561735 c 0
 355.122956473 485.196566314 378.131728041 473.417481094 396.642811888 456.466868226 c 0
 415.153895734 439.516255357 429.017858823 417.717279643 437.465336143 394.082059553 c 0
 445.912813463 370.446839463 449.145019552 345.073341062 448 320 c 0
 446.446110669 285.973334562 436.916021517 252.200571186 419.53754459 222.90522902 c 0
 402.159067664 193.609886854 376.488161752 169.188828984 346 154 c 0
 309.040572935 135.587265851 266.414155718 131.32746598 225.232047641 134.337781935 c 0
 184.049939565 137.34809789 143.539638894 146.153618279 103 154 c 2
 72 160 l 1
 92 258 l 1
 126 251 l 2
 152.892454702 245.46331815 179.625496359 238.979912797 206.802668245 235.07347016 c 0
 233.979840131 231.167027522 262.482916826 230.864052483 288 241 c 0
  Spiro
    288 241 o
    348 320 o
    256 398 [
    252 398 v
    213 498 v
    256 498 ]
    448 320 o
    346 154 o
    103 154 [
    72 160 v
    92 258 v
    126 251 ]
    0 0 z
  EndSpiro
224 655 m 0
 207.779875071 648.557009088 193.140344743 637.968180499 182.453526665 624.169756532 c 0
 171.766708586 610.371332565 165.051578288 593.421216023 164 576 c 0
 163.304382639 564.475893378 165.107234826 552.766866898 169.580329425 542.123543092 c 0
 174.053424025 531.480219286 181.230649448 521.976533508 190.301092441 514.833986283 c 0
 199.371535433 507.691439059 210.243049124 502.995798214 221.531487758 500.575040037 c 0
 232.819926391 498.15428186 244.454918063 498 256 498 c 2
 260 498 l 1
 299 398 l 1
 256 398 l 2
 230.900527858 398 205.541210106 398.485442843 181.209126817 404.644438265 c 0
 156.877043527 410.803433686 133.868271959 422.582518906 115.357188112 439.533131774 c 0
 96.8461042658 456.483744643 82.9821411773 478.282720357 74.5346638571 501.917940447 c 0
 66.0871865368 525.553160537 62.8549804483 550.926658938 64 576 c 0
 65.5538893311 610.026665438 75.0839784835 643.799428814 92.4624554097 673.09477098 c 0
 109.840932336 702.390113146 135.511838248 726.811171016 166 742 c 0
 202.959427065 760.412734149 245.585844282 764.67253402 286.767952359 761.662218065 c 0
 327.950060435 758.65190211 368.460361106 749.846381721 409 742 c 2
 440 736 l 1
 420 638 l 1
 386 645 l 2
 359.107545298 650.53668185 332.374503641 657.020087203 305.197331755 660.92652984 c 0
 278.020159869 664.832972478 249.517083174 665.135947517 224 655 c 0
  Spiro
    224 655 o
    164 576 o
    256 498 [
    260 498 v
    299 398 v
    256 398 ]
    64 576 o
    166 742 o
    409 742 [
    440 736 v
    420 638 v
    386 645 ]
    0 0 z
  EndSpiro
EndSplineSet
EndChar
StartChar: ampersand
Encoding: 38 38 75
Width: 512
VWidth: 0
InSpiro: 1
Flags: HMW
LayerCount: 2
Fore
SplineSet
448 0 m 1
 438 0 l 2
 426.514747721 -3.69393886538e-15 414.987647455 0.022948262272 403.610110798 1.59224094379 c 0
 392.23257414 3.1615336253 381.00498437 6.34975680474 370.900108754 11.8089242036 c 0
 360.795233137 17.2680916023 351.958699558 24.9864361329 344.960839877 34.0936299809 c 0
 337.962980195 43.2008238288 332.874730144 53.6005756926 328 64 c 2
 178 384 l 2
 156.698983589 429.442168343 137.204752075 475.807092532 122.417283359 523.76597839 c 0
 107.629814644 571.724864249 95.0828180006 620.468272623 87 670 c 0
 82.3631701247 698.414618919 79.6934007376 727.400049634 83 756 c 0
 86.8657073921 789.435874979 99.6840983834 822.298192908 122.292570745 847.23327676 c 0
 144.901043107 872.168360611 176.970344809 888.406560224 210.497516768 891.378120357 c 0
 244.024688728 894.34968049 278.324208184 884.176819144 305.580778915 864.428888083 c 0
 332.837349647 844.680957022 353.041822335 815.824829481 364 784 c 0
 381.165776714 734.147010432 375.448957874 677.9600637 353.661010757 629.946838236 c 0
 331.87306364 581.933612771 294.657270425 542.904125016 257 506 c 2
 157 408 l 2
 140.601485434 391.929455726 124.742942735 374.815169039 114.43517539 354.298746213 c 0
 104.127408044 333.782323387 99.3331903698 310.828638844 98.0836438848 287.902402633 c 0
 96.8340974127 264.976166454 98.5071779413 241.995384016 100.38697312 219.112201505 c 0
 102.266768298 196.229018995 103.866168589 173.12577194 110 151 c 0
 113.155481667 139.617641541 117.816647526 128.475980738 125.219029808 119.271640175 c 0
 132.621412089 110.067299612 142.986426097 103.014116789 154.586986945 100.791025099 c 0
 166.187547789 98.5679334085 178.56103762 101.460067193 188.284364633 108.166188305 c 0
 198.007691645 114.872309416 204.779125112 124.959289657 211 135 c 2
 325 319 l 2
 331.097898529 328.842222187 337.275105651 338.687650077 344.726748385 347.549180679 c 0
 352.178391119 356.410711281 360.923117498 364.248456729 370.892787951 370.135678067 c 0
 380.862458405 376.022899406 391.972749593 379.886629009 403.378013703 381.880031786 c 0
 414.783277813 383.873434564 426.421843668 384 438 384 c 2
 448 384 l 1
 448 284 l 1
 438 284 l 2
 433.979472849 284 429.935444691 283.946966904 425.983482161 283.207622101 c 0
 422.031519632 282.468277298 418.199071179 281.046769909 414.780082143 278.931314274 c 0
 411.361093107 276.81585864 408.380700749 274.037154606 405.82503911 270.933409745 c 0
 403.269377472 267.829664884 401.125361468 264.412840049 399 261 c 2
 295 94 l 2
 279.560708441 69.208060669 263.203808026 44.3481042303 240.542269773 25.9234831039 c 0
 217.88073152 7.49886197744 189.206050394 -3.86361800007 160 -4 c 0
 129.776839907 -4.14113154508 99.9694663912 7.63568813218 76.8043049667 27.0479167595 c 0
 53.6391435423 46.4601453867 37.022538527 72.8581633769 26 101 c 0
 13.4875337302 132.9457973 7.58257163442 167.110866628 3.9819206824 201.230231951 c 0
 0.381269730381 235.349597273 -1.33749492352 269.717250918 0 304 c 0
 0.812800420451 324.833748509 3.01485389067 345.693588844 8.17997431595 365.893273307 c 0
 13.3450947412 386.092957771 21.665306932 405.500558452 33 423 c 0
 54.9753167417 456.927321059 86.2890972484 483.545444594 115 512 c 2
 227 623 l 2
 244.500913296 640.344655141 262.379258939 658.316076847 272 681 c 0
 281.055789987 702.351873298 282.497337527 727.052340543 275 749 c 0
 271.010175153 760.679788554 264.303948431 771.651978839 254.63806647 779.327061177 c 0
 244.972184509 787.002143515 232.189404682 790.937672957 220 789 c 0
 207.778496023 787.05722442 196.844184168 779.319658664 189.952381013 769.041400753 c 0
 183.060577857 758.763142842 179.934770119 746.33960053 179 734 c 0
 177.616623291 715.738487768 180.421707733 697.42409966 183.705109324 679.407001278 c 0
 186.988510915 661.389902896 190.926302709 643.495318896 195.241498973 625.697126816 c 0
 203.871891505 590.100742659 216.108571233 555.463884855 231 522 c 2
 409 122 l 2
 410.340370884 118.987930597 411.671842043 115.963208708 413.32358248 113.109980759 c 0
 414.975322916 110.256752811 416.980119021 107.577858143 419.485663969 105.435102742 c 0
 421.991208917 103.292347341 424.989661374 101.734188119 428.180756006 100.905893943 c 0
 431.371850638 100.077599766 434.703159665 100 438 100 c 2
 448 100 l 1
 448 0 l 1
  Spiro
    448 0 v
    438 0 ]
    328 64 [
    178 384 ]
    87 670 o
    83 756 o
    364 784 o
    257 506 [
    157 408 ]
    110 151 o
    211 135 [
    325 319 ]
    438 384 [
    448 384 v
    448 284 v
    438 284 ]
    399 261 [
    295 94 ]
    160 -4 o
    26 101 o
    0 304 o
    33 423 o
    115 512 [
    227 623 ]
    272 681 o
    275 749 o
    220 789 o
    179 734 o
    231 522 [
    409 122 ]
    438 100 [
    448 100 v
    0 0 z
  EndSpiro
EndSplineSet
EndChar
StartChar: quotesingle
Encoding: 39 39 59
Width: 512
VWidth: 0
InSpiro: 1
Flags: HMW
LayerCount: 2
Fore
SplineSet
206 404 m 1
 306 404 l 1
 306 756 l 1
 206 756 l 1
 206 404 l 1
  Spiro
    206 404 v
    306 404 v
    306 756 v
    206 756 v
    0 0 z
  EndSpiro
EndSplineSet
EndChar
StartChar: plus
Encoding: 43 43 61
Width: 512
VWidth: 0
InSpiro: 1
Flags: HMW
LayerCount: 2
Fore
SplineSet
306 696 m 1
 206 696 l 1
 206 200 l 1
 306 200 l 1
 306 696 l 1
  Spiro
    306 696 v
    206 696 v
    206 200 v
    306 200 v
    0 0 z
  EndSpiro
440 398 m 1
 440 498 l 1
 72 498 l 1
 72 398 l 1
 440 398 l 1
  Spiro
    440 398 v
    440 498 v
    72 498 v
    72 398 v
    0 0 z
  EndSpiro
EndSplineSet
EndChar
StartChar: comma
Encoding: 44 44 98
Width: 512
VWidth: 0
InSpiro: 1
Flags: HMW
LayerCount: 2
Fore
SplineSet
320 200 m 2
 320 207.397600869 319.882416096 214.856326128 318.268254341 222.075673775 c 0
 316.654092586 229.295021421 313.553310027 236.216174849 308.946962802 242.004617114 c 0
 304.340615577 247.793059379 298.29543974 252.405446501 291.552321974 255.44762687 c 0
 284.809204208 258.48980724 277.397600868 260 270 260 c 0
 262.602399131 260 255.190795792 258.489807239 248.447678026 255.44762687 c 0
 241.70456026 252.4054465 235.659384423 247.793059378 231.053037198 242.004617113 c 0
 226.446689974 236.216174848 223.345907414 229.295021421 221.731745659 222.075673774 c 0
 220.117583904 214.856326128 220 207.397600868 220 200 c 2
 220 168 l 2
 220 146.557892488 219.448201821 124.975640041 215 104 c 0
 209.906284336 79.9804184802 199.985922206 56.8670686691 185.079532385 37.3558980699 c 0
 170.173142564 17.8447274707 150.397465434 2.06179793931 128 -8 c 1
 128 -108 l 1
 177.498019284 -96.1652462567 222.855732681 -67.9644231908 255.734147741 -29.1169633982 c 0
 288.6125628 9.73049639445 308.591819666 58.6488910421 316 109 c 0
 319.453957353 132.475479156 320 156.271790143 320 180 c 2
 320 200 l 2
  Spiro
    320 200 ]
    270 260 o
    220 200 [
    220 168 ]
    215 104 o
    128 -8 v
    128 -108 v
    316 109 o
    320 180 [
    0 0 z
  EndSpiro
EndSplineSet
EndChar
StartChar: slash
Encoding: 47 47 48
Width: 512
VWidth: 0
InSpiro: 1
Flags: MW
LayerCount: 2
Fore
SplineSet
64 0 m 1
 164 0 l 1
 162.108302008 27.3086349174 165.211141513 54.9049061899 172.605994683 81.2612376672 c 0
 180.000847852 107.617569144 191.811253966 132.489297593 204 157 c 2
 387 525 l 2
 405.857262263 562.920614825 424.120504142 601.413028746 435.433403655 642.224640738 c 0
 446.746303167 683.03625273 451.299993894 725.778211678 448 768 c 1
 348 768 l 1
 350.640674565 735.184726144 347.175587968 701.950979761 338.451509213 670.206597418 c 0
 329.727430459 638.462215076 315.595129863 608.509278959 301 579 c 2
 118 209 l 2
 101.842087333 176.330996247 86.177124147 143.200052583 76.234740473 108.135954778 c 0
 66.292356799 73.0718569736 61.9076235071 36.3863148532 64 0 c 1
  Spiro
    64 0 v
    164 0 v
    204 157 [
    387 525 ]
    448 768 v
    348 768 v
    301 579 [
    118 209 ]
    0 0 z
  EndSpiro
EndSplineSet
EndChar
StartChar: three
Encoding: 51 51 81
Width: 512
VWidth: 0
InSpiro: 1
Flags: W
VStem: 64 100<121.253 181> 217.601 94.0593<393.062 436.57 448.029 502.094>
LayerCount: 2
Fore
SplineSet
448 768 m 1
 64 768 l 1
 64 668 l 1
 317 668 l 1
 232 512 l 2
 226.579232749 502.05129775 221.222432942 492.009929986 217.444967689 481.328537272 c 0
 213.667502437 470.647144558 211.502536803 459.358279107 211.542664653 448.028681418 c 0
 211.582792504 436.699083729 213.821689215 425.430618644 217.601424639 414.750029046 c 0
 221.381160064 404.069439448 226.665208775 393.995068616 232 384 c 2
 319 221 l 2
 324.177856079 211.298959301 329.157630806 201.376223654 331.846282175 190.713600241 c 0
 334.534933544 180.050976828 334.983871468 168.815943705 333 158 c 0
 329.534020678 139.103696572 318.738272765 121.731038479 303.62472955 109.870848455 c 0
 288.511186335 98.010658432 269.208775917 91.6740802882 250 92 c 0
 227.116240577 92.3882740008 204.570422544 102.298879541 188.686432211 118.776623718 c 0
 172.802441879 135.254367895 163.741276266 158.114409248 164 181 c 2
 164 223 l 1
 64 223 l 1
 64 181 l 2
 63.2858193712 151.578475503 70.0534620354 122.010060016 83.4621740922 95.811918886 c 0
 96.8708861489 69.613777756 116.882067568 46.865986271 141 30 c 0
 185.645447357 -1.22114651889 243.809235668 -11.7778839119 297 0 c 0
 331.785643302 7.70248883898 364.701944046 25.0636593462 389.138837365 50.9906252137 c 0
 413.575730685 76.9175910812 428.709403306 111.445499849 431 147 c 0
 432.492447676 170.165680477 428.740726542 193.499708936 421.533242592 215.566161463 c 0
 414.325758642 237.632613991 403.718587089 258.409030065 393 279 c 2
 317 425 l 2
 315.03712494 428.7707863 313.085978491 432.564614649 311.66071145 436.569651688 c 0
 310.23544441 440.574688727 309.351864481 444.791328228 309.293380724 449.042009052 c 0
 309.234896967 453.292689876 310.010751149 457.539189921 311.432744596 461.545390422 c 0
 312.854738042 465.551590924 314.911894364 469.297092673 317 473 c 2
 392 606 l 2
 407.246877752 633.037796547 423.146546885 659.918867305 434 689 c 0
 443.407679397 714.207274589 448.509537906 741.09922873 448 768 c 1
  Spiro
    448 768 v
    64 768 v
    64 668 v
    317 668 v
    232 512 ]
    232 384 [
    319 221 ]
    333 158 o
    250 92 o
    164 181 v
    164 223 v
    64 223 v
    64 181 v
    141 30 o
    297 0 o
    431 147 o
    393 279 [
    317 425 ]
    317 473 [
    392 606 ]
    434 689 o
    0 0 z
  EndSpiro
EndSplineSet
EndChar
StartChar: five
Encoding: 53 53 84
Width: 512
VWidth: 0
InSpiro: 1
Flags: HMW
LayerCount: 2
Fore
SplineSet
64 398 m 1
 64 768 l 1
 435 768 l 1
 435 668 l 1
 164 668 l 1
 164 498 l 1
 211.099312892 504.501549641 259.36886414 505.281842006 306 496 c 0
 334.518977814 490.32334981 362.548199299 480.192134738 386 463 c 0
 409.707710563 445.620261893 427.873291841 420.881073839 437.489154696 393.102556629 c 0
 447.10501755 365.324039419 448 335.395762226 448 306 c 2
 448 192 l 2
 446.955782538 141.36083565 425.368216886 91.44141906 389.186005117 55.9976197763 c 0
 353.003793348 20.5538204925 302.649929478 6.20282740125e-15 252 0 c 0
 201.350070522 6.20282740125e-15 150.996206652 20.5538204925 114.813994883 55.9976197763 c 0
 78.631783114 91.44141906 57.0442174621 141.36083565 56 192 c 1
 156 192 l 1
 157.040981581 167.548007124 167.84687801 143.647096957 185.516919446 126.713307248 c 0
 203.186960881 109.779517538 227.52585858 100 252 100 c 0
 276.47414142 100 300.813039119 109.779517538 318.483080554 126.713307248 c 0
 336.15312199 143.647096957 346.959018419 167.548007124 348 192 c 2
 348 306 l 2
 348 315.694245793 347.716819857 325.476328227 345.363441385 334.880583182 c 0
 343.010062913 344.284838137 338.73440509 353.183670954 333 361 c 0
 321.886837173 376.147889979 305.802927734 387.146798333 288.524366143 394.523265522 c 0
 271.245804552 401.89973271 252.666477974 405.87313402 234 408 c 0
 177.440226687 414.444443235 120.158201485 407.316394786 64 398 c 1
  Spiro
    64 398 v
    64 768 v
    435 768 v
    435 668 v
    164 668 v
    164 498 v
    306 496 o
    386 463 o
    448 306 [
    448 192 v
    252 0 o
    56 192 v
    156 192 v
    252 100 o
    348 192 v
    348 306 ]
    333 361 o
    234 408 o
    0 0 z
  EndSpiro
EndSplineSet
EndChar
StartChar: six
Encoding: 54 54 85
Width: 512
VWidth: 0
InSpiro: 1
Flags: HMW
LayerCount: 2
Fore
SplineSet
146 315 m 1
 133 402 l 1
 158.355107546 422.676867835 188.966859722 436.860153405 221.138949666 442.807503294 c 0
 253.311039611 448.754853184 286.999685218 446.459198132 318 436 c 0
 345.795867177 426.621950645 371.366242853 410.661212343 391.873145554 389.684439869 c 0
 412.380048256 368.707667395 427.643920148 342.803269801 437 315 c 0
 447.457872796 283.922554801 450.905985956 250.777338101 450 218 c 0
 449.11633198 186.030094447 444.120249539 153.986593345 433 124 c 0
 417.899453557 83.2802352225 390.185458783 46.8441342133 353.191635747 24.0936879859 c 0
 316.19781271 1.34324175857 270.818275261 -7.26092625796 228 0 c 0
 174.612429771 9.05321870552 126.315151818 42.8432496656 98 89 c 0
 83.3612008603 112.862820917 73.8931894187 139.726095549 68.9959457105 167.289579843 c 0
 64.0987020024 194.853064137 63.8627705004 223.005182079 64 251 c 2
 65 455 l 2
 65.190526156 493.867335819 67.2728897167 533.232190381 79.3562912777 570.174002743 c 0
 91.4396928387 607.115815106 112.157963455 640.967341819 138 670 c 0
 170.982708323 707.054962559 212.252495225 737.398792336 259 754 c 0
 290.587640096 765.21756071 324.479667736 768 358 768 c 2
 384 768 l 1
 384 668 l 1
 348.430646519 668.983573338 312.641310274 661.087195523 280.815790357 645.172340652 c 0
 248.99027044 629.25748578 221.141461713 605.333732181 201 576 c 0
 186.349971019 554.663910659 175.928888036 530.469399564 170.268860839 505.214377298 c 0
 164.608833642 479.959355032 164 453.881500295 164 428 c 2
 164 267 l 2
 164 246.746394114 163.797697992 226.460557599 165.42815409 206.272685887 c 0
 167.058610189 186.084814174 170.732591122 165.796289419 179.343099072 147.464139949 c 0
 187.953607023 129.131990479 201.917953806 112.926875953 220.05376253 103.91016961 c 0
 238.189571254 94.8934632661 260.088997553 93.7486182139 279 101 c 0
 300.1722097 109.118436672 316.615035748 126.867431429 327.037515659 147.005539336 c 0
 337.45999557 167.143647243 342.985504478 189.5259195 346 212 c 0
 348.552953528 231.033129316 349.204188392 250.501861777 345.605899383 269.365315848 c 0
 342.007610374 288.228769918 333.586448688 306.428485887 320 320 c 0
 310.808776936 329.181119834 299.467324349 336.128509682 287.246533786 340.535756082 c 0
 275.025743224 344.943002482 261.990699466 346.884803683 249 347 c 0
 212.563598375 347.323103407 176.665791838 334.680573419 146 315 c 1
  Spiro
    146 315 v
    133 402 v
    318 436 o
    437 315 o
    450 218 o
    433 124 o
    228 0 o
    98 89 o
    64 251 [
    65 455 ]
    138 670 o
    259 754 o
    358 768 [
    384 768 v
    384 668 v
    201 576 o
    164 428 [
    164 267 ]
    279 101 o
    346 212 o
    320 320 o
    249 347 o
    0 0 z
  EndSpiro
EndSplineSet
EndChar
StartChar: at
Encoding: 64 64 92
Width: 512
VWidth: 0
InSpiro: 1
Flags: HMW
LayerCount: 2
Fore
SplineSet
273 460 m 0
 280.758609737 459.8838982 288.31122026 456.360178512 293.75047046 450.826277362 c 0
 299.189720661 445.292376211 302.55460687 437.969826659 304.316053145 430.412921757 c 0
 307.838945695 415.299111952 305.975937187 399.518938099 306 384 c 0
 306.025417642 367.60728564 308.315086235 351.0060728 305.152169064 334.921369349 c 0
 303.570710478 326.879017623 300.306152148 319.006983161 294.72731647 313.002232956 c 0
 289.148480793 306.997482752 281.19547203 303.121122823 273 303 c 0
 264.730979623 302.877790189 256.595659828 306.59074911 250.849564008 312.538355019 c 0
 245.103468187 318.485960929 241.694354461 326.392541362 240.023006551 334.49181475 c 0
 236.680310732 350.690361524 238.970219199 367.460179987 239 384 c 0
 239.028207199 399.665864248 237.174419773 415.615513445 240.879870145 430.836871329 c 0
 242.732595332 438.44755027 246.240000386 445.799558335 251.840851346 451.275459457 c 0
 257.441702305 456.751360579 265.167932043 460.117201048 273 460 c 0
  Spiro
    273 460 o
    306 384 o
    273 303 o
    239 384 o
    0 0 z
  EndSpiro
161 384 m 0
 161.000000004 353.125682619 163.943382798 321.707280191 175.481718016 293.070061505 c 0
 181.250885626 278.751452162 189.347427058 265.266881826 200.082369251 254.173330341 c 0
 210.817311443 243.079778855 224.229249764 234.486736666 239 230 c 0
 257.92416928 224.251628196 278.817651304 225.53082603 297.062306821 233.166302856 c 0
 315.306962339 240.801779682 330.71809579 254.44958248 341.93047642 270.742233643 c 0
 353.142857051 287.034884806 360.362359118 305.83954331 364.787537022 325.116103216 c 0
 369.212714925 344.392663123 371.000000001 364.222033438 371 384 c 0
 370.999999999 403.777966561 369.212714921 423.607336874 364.787537016 442.88389678 c 0
 360.362359111 462.160456685 353.142857043 480.965115187 341.930476413 497.257766349 c 0
 330.718095783 513.550417511 315.306962334 527.198220309 297.062306818 534.833697136 c 0
 278.817651302 542.469173963 257.92416928 543.7483718 239 538 c 0
 224.229249763 533.513263337 210.817311439 524.920221149 200.082369245 513.826669664 c 0
 189.347427051 502.73311818 181.250885616 489.248547844 175.481718006 474.9299385 c 0
 163.943382787 446.292719813 160.999999996 414.874317382 161 384 c 0
  Spiro
    161 384 o
    239 230 o
    371 384 o
    239 538 o
    0 0 z
  EndSpiro
468 192 m 1
 368 192 l 1
 368.718691246 168.467823918 359.466287645 144.820601276 343.069094523 127.926463655 c 0
 326.6719014 111.032326034 303.51342238 101.182707157 280 100 c 0
 257.2365429 98.8550155228 234.474230759 105.494722644 214.646512038 116.735164758 c 0
 194.818793317 127.975606872 177.67720171 143.562519719 163 161 c 0
 139.951005557 188.383720278 122.521234787 220.499211052 112.156713682 254.758530708 c 0
 101.792192577 289.017850365 100 325.207203503 100 361 c 2
 100 405 l 2
 100 440.895224476 102.591767083 477.12722566 113.490557105 511.327861856 c 0
 124.389347127 545.528498052 140.961039356 577.916855824 162 607 c 0
 173.344628641 622.682213392 186.373949029 637.375759962 202.14261521 648.599911724 c 0
 217.91128139 659.824063485 236.659438932 667.241637663 256 668 c 0
 280.609517595 668.964963281 304.938090533 658.743401272 323.33760927 642.372169778 c 0
 341.737128008 626.000938284 354.81516151 604.423839442 365 582 c 0
 375.44201138 559.009946024 383.178373626 534.78568342 388 510 c 0
 395.967042311 469.045232206 394.943335156 426.261770749 384 386 c 0
 381.581112679 386.470932347 379.275306405 387.508131823 377.313504189 388.999481953 c 0
 375.351701972 390.490832082 373.741913785 392.431529306 372.586014221 394.607922961 c 0
 371.430114657 396.784316617 370.730655203 399.185337582 370.373631138 401.623641698 c 0
 370.016607073 404.061945814 370 406.535696215 370 409 c 2
 370 476 l 1
 306 476 l 1
 306 290 l 2
 306 281.711660529 306.080916847 273.360673381 307.763171931 265.244850008 c 0
 309.445427015 257.129026635 312.765054492 249.275285789 317.998594467 242.848262333 c 0
 323.232134443 236.421238876 330.342806219 231.521269007 338.251983912 229.043068165 c 0
 346.161161605 226.564867323 354.770837102 226.515473352 362.787541358 228.619998015 c 0
 370.804245637 230.724522668 378.197555056 234.917741684 384.49738751 240.303712585 c 0
 390.797219965 245.689683486 396.035674193 252.234507652 400.488317703 259.225254198 c 0
 409.393604723 273.20674729 415.43826198 288.777323489 422 304 c 0
 430.092220258 322.773265778 439.083732194 341.151863734 447 360 c 0
 460.188819756 391.401751182 468.077099622 424.995332703 470 459 c 0
 473.579982223 522.308586237 462.487324188 587.400391837 432 643 c 0
 407.843236618 687.054590368 370.792731313 724.241103474 326 747 c 0
 296.848035257 761.811924383 264.204194496 770.364722437 231.52443562 769.240661888 c 0
 198.844676744 768.116601339 166.794258431 756.742941804 140 738 c 0
 117.525260878 722.278619671 98.4977871796 702.121153895 81 681 c 0
 62.9189593285 659.174814981 46.1893328304 636.085936944 33 611 c 0
 14.9862917362 576.738164664 5.0517580391 538.592985542 1.43757843255 500.05333386 c 0
 -2.17660117399 461.513682178 -0.765743828003 422.70117159 0 384 c 0
 0.757901469525 345.695186109 0.782774011901 307.325279337 4.12149489779 269.158721662 c 0
 7.46021578368 230.992163987 15.1325792623 192.872025192 31 158 c 0
 41.8332700579 134.191589508 56.1825656476 112.034321853 73 92 c 0
 97.2214854736 63.1453587051 126.529844005 38.2921757016 160 21 c 0
 193.253197263 3.81991485769 230.766733401 -5.38894216532 268.176347431 -4.18427129233 c 0
 305.58596146 -2.97960041934 342.614481494 8.60687170014 374 29 c 0
 428.589454441 64.4701722718 464.592153161 126.988245393 468 192 c 1
  Spiro
    468 192 v
    368 192 v
    280 100 o
    163 161 o
    100 361 [
    100 405 ]
    162 607 o
    256 668 o
    365 582 o
    388 510 o
    384 386 v
    370 409 [
    370 476 v
    306 476 v
    306 290 ]
    422 304 o
    447 360 o
    470 459 o
    432 643 o
    326 747 o
    140 738 o
    81 681 o
    33 611 o
    0 384 o
    31 158 o
    73 92 o
    160 21 o
    374 29 o
    0 0 z
  EndSpiro
EndSplineSet
EndChar
StartChar: A
Encoding: 65 65 27
Width: 512
VWidth: 0
InSpiro: 1
Flags: HW
HStem: 0 21G<64 164 348 448> 256 100<128 384>
VStem: 64 100<0 256 356 560.065> 128 36<256 356> 348 100<0 256 356 560.046> 348 36<256 356>
LayerCount: 2
Fore
SplineSet
128 284 m 1xd4
 128 384 l 1
 384 384 l 1
 384 284 l 1
 128 284 l 1xd4
  Spiro
    128 284 v
    128 384 v
    384 384 v
    384 284 v
    0 0 z
  EndSpiro
258 761 m 1024
  Spiro
    258 761 {
    0 0 z
  EndSpiro
164 0 m 1xe8
 64 0 l 1
 64 521 l 2
 64 535.650413554 62.3526566687 550.370834287 64.0588108645 564.921561251 c 0
 64.9118879608 572.196924731 66.9322216794 579.374366904 70.4336371528 585.808552477 c 0
 73.9350526262 592.24273805 78.9045029622 597.737437484 84 603 c 2
 206 729 l 2
 213.085942739 736.31826873 219.97879654 743.902298098 228.031868089 750.140541467 c 0
 232.058403863 753.259663151 236.416114517 755.988036302 241.128895602 757.919772534 c 0
 245.841676687 759.851508766 250.906844166 760.9590846 256 761 c 0
 261.106513769 761.041022709 266.203677676 760.008520498 270.950228897 758.124796199 c 0
 275.696780119 756.2410719 280.087736012 753.533943796 284.12698943 750.409428225 c 0
 292.205496267 744.160397081 299.018602093 736.45471302 306 729 c 2
 424 603 l 2
 429.047436902 597.610363986 434.003009308 592.064287986 437.799609683 585.730993327 c 0
 441.596210059 579.397698667 444.224686531 572.390896494 445.74537703 565.165088854 c 0
 448.786758026 550.713473573 448.000000001 535.768181425 448 521 c 2
 448 0 l 1
 348 0 l 1
 348 469 l 2
 348 485.782611042 349.157189525 502.719973311 346.283813385 519.2547773 c 0
 344.847125315 527.522179293 342.177273632 535.597915497 338.109681062 542.937445387 c 0
 334.042088491 550.276975278 328.580954595 556.733665015 323 563 c 2
 266 627 l 2
 264.710115409 628.448291471 263.326143827 629.859392977 261.614025267 630.770436598 c 0
 259.901906707 631.68148022 257.936827803 632.10024224 256 632 c 0
 254.233620168 631.908579446 252.49073806 631.387636688 250.966708195 630.489979514 c 0
 249.44267833 629.592322341 248.187745971 628.310616244 247 627 c 2
 189 563 l 2
 183.359612545 556.776124188 177.841197815 550.353136993 173.748749021 543.018120727 c 0
 169.656300227 535.68310446 166.995878948 527.590836635 165.587445546 519.310322393 c 0
 162.770578743 502.749293909 163.999999998 485.798881005 164 469 c 2
 164 0 l 1xe8
  Spiro
    164 0 v
    64 0 v
    64 521 ]
    84 603 [
    206 729 ]
    256 761 o
    306 729 [
    424 603 ]
    448 521 [
    448 0 v
    348 0 v
    348 469 ]
    323 563 [
    266 627 ]
    256 632 o
    247 627 [
    189 563 ]
    164 469 [
    0 0 z
  EndSpiro
EndSplineSet
EndChar
StartChar: B
Encoding: 66 66 28
Width: 512
VWidth: 0
InSpiro: 1
Flags: HMW
LayerCount: 2
Fore
SplineSet
64 756 m 1
 64 0 l 1
 164 0 l 1
 164 756 l 1
 64 756 l 1
  Spiro
    64 756 v
    64 0 v
    164 0 v
    164 756 v
    0 0 z
  EndSpiro
244 656 m 2
 256.633397429 656 269.348896117 655.842328479 281.746977071 653.415330485 c 0
 294.145058025 650.988332491 306.164127018 646.297204377 316.537688696 639.086660103 c 0
 326.911250373 631.87611583 335.566075081 622.220154108 341.635219919 611.140072359 c 0
 347.704364757 600.059990611 351.218263355 587.609187857 352 575 c 0
 352.834927318 561.532861841 350.552259175 547.858617726 345.205449517 535.470214265 c 0
 339.85863986 523.081810804 331.401040566 512.041880831 320.780810438 503.718923072 c 0
 310.16058031 495.395965314 297.469028983 489.890927729 284.280384507 487.041266221 c 0
 271.091740031 484.191604713 257.492994991 484 244 484 c 2
 127 484 l 1
 127 384 l 1
 224 384 l 2
 251.203098742 384 278.676724984 384.557754736 305.068924262 391.150204842 c 0
 331.46112354 397.742654948 356.443433673 410.258638059 376.965207284 428.115440377 c 0
 397.486980893 445.972242695 413.449875411 468.830406454 424.229068214 493.806746932 c 0
 435.008261016 518.783087409 440.843017221 545.821516378 442 573 c 0
 443.082345917 598.425201888 440.036868668 624.132268779 431.885146674 648.239566269 c 0
 423.733424681 672.34686376 410.236641849 694.777121614 391.865542077 712.38720557 c 0
 373.494442307 729.997289526 350.379002474 742.419827054 325.780304101 748.940287318 c 0
 301.181605729 755.460747582 275.448229087 755.999999999 250 756 c 2
 64 756 l 1
 64 656 l 1
 244 656 l 2
  Spiro
    244 656 ]
    352 575 o
    244 484 [
    127 484 v
    127 384 v
    224 384 ]
    442 573 o
    250 756 [
    64 756 v
    64 656 v
    0 0 z
  EndSpiro
224 384 m 2
 242.165465522 384 260.664194794 383.344306133 277.779186006 377.256513968 c 0
 294.894177217 371.168721802 310.072366086 359.893281388 321.030328034 345.405106639 c 0
 331.988289977 330.916931885 338.820492349 313.645981692 343.021817236 295.973036074 c 0
 347.223142124 278.300090455 349.108337334 260.143568429 350 242 c 0
 350.872308182 224.250257089 350.782861795 206.375907919 348.115664628 188.80603728 c 0
 345.448467462 171.236166642 339.885866851 153.867830326 329.849667078 139.201917839 c 0
 319.813467311 124.536005353 305.213051972 113.041199842 288.555339029 106.849681909 c 0
 271.897626086 100.658163977 253.7711647 100.000000004 236 100 c 2
 64 100 l 1
 64 5.68434e-14 l 1
 239 5.68434e-14 l 2
 270.084591796 5.68434e-14 301.709413973 1.02354516877 331.116425915 11.0972483507 c 0
 360.523437857 21.1709515326 386.859062635 39.9770102992 405.874898173 64.5666391286 c 0
 424.890733704 89.1562679627 436.649805589 118.803342208 443.046414232 149.222665755 c 0
 449.443022875 179.641989301 450.979836143 210.930855044 450 242 c 0
 449.00416244 273.576526303 445.422291645 305.191982547 437.268100995 335.71374332 c 0
 429.113910345 366.235504093 415.890120481 395.744679704 395.795728746 420.12262315 c 0
 375.701337019 444.500566594 348.664352304 463.061576353 318.68278288 473.020200774 c 0
 288.701213456 482.978825195 256.592225396 483.999999996 225 484 c 2
 127 484 l 1
 127 384 l 1
 224 384 l 2
  Spiro
    224 384 ]
    350 242 o
    236 100 [
    64 100 v
    64 5.68434e-14 v
    239 5.68434e-14 ]
    450 242 o
    225 484 [
    127 484 v
    127 384 v
    0 0 z
  EndSpiro
EndSplineSet
EndChar
StartChar: D
Encoding: 68 68 41
Width: 512
VWidth: 0
InSpiro: 1
Flags: HMW
LayerCount: 2
Fore
SplineSet
64 756 m 1
 64 0 l 1
 164 0 l 1
 164 756 l 1
 64 756 l 1
  Spiro
    64 756 v
    64 0 v
    164 0 v
    164 756 v
    0 0 z
  EndSpiro
64 756 m 1
 64 656 l 1
 180 656 l 2
 190.93516985 656 201.92185477 655.837711026 212.700301282 653.992980577 c 0
 223.478747794 652.148250127 233.979866557 648.66712579 243.683940252 643.626402294 c 0
 263.092087642 633.544955302 278.910077024 617.726799727 293 601 c 0
 309.694452491 581.181242735 325.020110031 559.865090481 335.212138934 536.040514297 c 0
 345.404167837 512.215938112 348 485.91308325 348 460 c 2
 348 294 l 2
 348 281.395142761 347.776434657 268.725466701 345.523021014 256.32367034 c 0
 343.269607371 243.92187398 339.064197321 231.887780261 333.188913243 220.735943505 c 0
 321.438345087 198.432269993 303.82596006 179.82596006 286 162 c 0
 268.174039941 144.17403994 249.567730008 126.561654913 227.264056497 114.811086757 c 0
 216.112219741 108.935802679 204.078126022 104.730392629 191.676329661 102.476978986 c 0
 179.2745333 100.223565343 166.604857239 100 154 100 c 2
 64 100 l 1
 64 0 l 1
 165 0 l 2
 183.369174801 2.33202197828e-10 201.835462805 0.333098748539 219.89984305 3.6654776654 c 0
 237.964223294 6.99785658227 255.475675871 13.2125488056 271.678098047 21.8674952811 c 0
 304.0829424 39.1773882321 331.022063867 65.0220638666 357 91 c 0
 382.977936134 116.977936132 408.822611768 143.917057598 426.13250472 176.32190195 c 0
 434.787451195 192.524324126 441.002143418 210.035776704 444.334522335 228.100156949 c 0
 447.666901252 246.164537194 448 264.630825199 448 283 c 2
 448 496 l 2
 448 512.798334035 447.645623266 529.699694049 444.335466754 546.16866154 c 0
 441.025310242 562.637629031 434.895566901 578.501611076 426.580004941 593.097345236 c 0
 409.948881021 622.288813556 385.946321976 646.460187178 363 671 c 0
 341.180074186 694.33519489 319.445558604 718.51098116 292.07130041 734.981878871 c 0
 278.384171313 743.217327726 263.341245241 749.219284175 247.696489856 752.444458544 c 0
 232.05173447 755.669632912 215.973732212 756 200 756 c 2
 64 756 l 1
  Spiro
    64 656 v
    180 656 ]
    293 601 o
    348 460 [
    348 294 ]
    286 162 o
    154 100 [
    64 100 v
    64 0 v
    165 0 ]
    357 91 o
    448 283 [
    448 496 ]
    363 671 o
    200 756 [
    64 756 v
    0 0 z
  EndSpiro
EndSplineSet
EndChar
StartChar: G
Encoding: 71 71 40
Width: 512
VWidth: 0
InSpiro: 1
Flags: HMW
LayerCount: 2
Fore
SplineSet
448 484 m 1
 448 184 l 2
 448 133.734517543 427.307565493 83.7785615174 391.764501988 48.2354980122 c 0
 356.221438483 12.6924345069 306.265482457 -8 256 -8 c 0
 205.734517543 -8 155.778561517 12.6924345069 120.235498012 48.2354980122 c 0
 84.6924345069 83.7785615174 64 133.734517543 64 184 c 2
 64 546 l 2
 64 575.829808292 64.7352479866 606.067054277 73.1918416721 634.673058646 c 0
 81.6484353576 663.279063015 97.710025452 689.691668945 119.798520674 709.73950777 c 0
 141.887015897 729.787346592 169.424751952 743.324231264 198.263415352 750.949777536 c 0
 227.102078753 758.575323807 257.177145617 760.644064526 287 760 c 0
 341.297187907 758.827379433 395.214331026 749.776259412 448 737 c 1
 428 640 l 1
 381.550439454 650.173069692 334.55050039 660.054171519 287 660 c 0
 270.230524785 659.980895512 253.350563251 658.334173461 237.293525901 653.498140427 c 0
 221.236488552 648.662107393 206.062626466 640.463569615 194.028833489 628.784379124 c 0
 181.995040512 617.105188634 173.392945765 602.049910386 168.883150169 585.89821055 c 0
 164.373354572 569.746510714 164 552.769486096 164 536 c 2
 164 184 l 2
 164 159.914456322 173.915124868 135.977227394 190.946176131 118.946176131 c 0
 207.977227394 101.915124868 231.914456322 92 256 92 c 0
 280.085543678 92 304.022772606 101.915124868 321.053823869 118.946176131 c 0
 338.084875132 135.977227394 348 159.914456322 348 184 c 2
 348 384 l 1
 272 384 l 1
 272 484 l 1
 448 484 l 1
  Spiro
    448 484 v
    448 184 v
    256 -8 o
    64 184 v
    64 546 ]
    287 760 o
    448 737 v
    428 640 v
    287 660 o
    164 536 [
    164 184 v
    256 92 o
    348 184 v
    348 384 v
    272 384 v
    272 484 v
    0 0 z
  EndSpiro
EndSplineSet
EndChar
StartChar: H
Encoding: 72 72 38
Width: 512
VWidth: 0
Flags: HMW
LayerCount: 2
Fore
SplineSet
64 756 m 5
 64 0 l 5
 164 0 l 5
 164 756 l 5
 64 756 l 5
  Spiro
    64 756 v
    64 0 v
    164 0 v
    164 756 v
    0 0 z
  EndSpiro
96 384 m 1
 402 384 l 1
 402 484 l 1
 96 484 l 1
 96 384 l 1
  Spiro
    96 384 v
    402 384 v
    402 484 v
    96 484 v
    0 0 z
  EndSpiro
348 756 m 5
 348 0 l 5
 448 0 l 5
 448 756 l 5
 348 756 l 5
  Spiro
    348 756 v
    348 0 v
    448 0 v
    448 756 v
    0 0 z
  EndSpiro
EndSplineSet
EndChar
StartChar: I
Encoding: 73 73 31
Width: 512
VWidth: 0
InSpiro: 1
Flags: MW
LayerCount: 2
Fore
SplineSet
88 656 m 1
 424 656 l 1
 424 756 l 1
 88 756 l 1
 88 656 l 1
  Spiro
    88 656 v
    424 656 v
    424 756 v
    88 756 v
    0 0 z
  EndSpiro
88 0 m 1
 424 0 l 1
 424 100 l 1
 88 100 l 1
 88 0 l 1
  Spiro
    88 0 v
    424 0 v
    424 100 v
    88 100 v
    0 0 z
  EndSpiro
206 756 m 1
 206 0 l 1
 306 0 l 1
 306 756 l 1
 206 756 l 1
  Spiro
    206 756 v
    206 0 v
    306 0 v
    306 756 v
    0 0 z
  EndSpiro
EndSplineSet
EndChar
StartChar: J
Encoding: 74 74 42
Width: 512
VWidth: 0
InSpiro: 1
Flags: HW
HStem: -8 100<195.875 316.125>
VStem: 64 100<123.913 184> 348 100<123.913 184>
LayerCount: 2
Fore
SplineSet
64 226 m 1
 64 184 l 2
 64 133.734517543 84.6924345069 83.7785615174 120.235498012 48.2354980122 c 0
 155.778561517 12.6924345069 205.734517543 -8 256 -8 c 0
 306.265482457 -8 356.221438483 12.6924345069 391.764501988 48.2354980122 c 0
 427.307565493 83.7785615174 448 133.734517543 448 184 c 2
 448 756 l 1
 348 756 l 1
 348 184 l 2
 348 159.914456322 338.084875132 135.977227394 321.053823869 118.946176131 c 0
 304.022772606 101.915124868 280.085543678 92 256 92 c 0
 231.914456322 92 207.977227394 101.915124868 190.946176131 118.946176131 c 0
 173.915124868 135.977227394 164 159.914456322 164 184 c 2
 164 226 l 1
 64 226 l 1
  Spiro
    64 226 v
    64 184 v
    256 -8 o
    448 184 v
    448 756 v
    348 756 v
    348 184 v
    256 92 o
    164 184 v
    164 226 v
    0 0 z
  EndSpiro
EndSplineSet
EndChar
StartChar: K
Encoding: 75 75 44
Width: 512
VWidth: 0
InSpiro: 1
Flags: HMW
LayerCount: 2
Fore
SplineSet
276 756 m 1
 276.000976562 741.811523438 273.897460938 727.642578125 270 714 c 0
 263.18359375 690.138671875 251.267578125 668.110351562 240 646 c 2
 187 542 l 2
 183.331054688 534.799804688 179.495117188 527.608398438 174.318359375 521.403320312 c 0
 169.141601562 515.197265625 162.69140625 510.046875 155.439453125 506.481445312 c 0
 148.1875 502.916015625 140.233398438 500.924804688 132.209960938 499.959960938 c 0
 124.186523438 498.99609375 116.081054688 499 108 499 c 2
 64 499 l 1
 64 397 l 1
 129 397 l 2
 156.18359375 397 184.286132812 396.592773438 209.328125 407.168945312 c 0
 221.849609375 412.456054688 233.190429688 420.51953125 242.233398438 430.666992188 c 0
 251.276367188 440.814453125 257.821289062 452.893554688 264 465 c 2
 338 610 l 2
 351.571289062 636.591796875 364.118164062 663.94921875 371 693 c 0
 375.8828125 713.611328125 378.259765625 734.819335938 378 756 c 1
 276 756 l 1
  Spiro
    276 756 v
    270 714 o
    240 646 [
    187 542 ]
    108 499 [
    64 499 v
    64 397 v
    129 397 ]
    264 465 [
    338 610 ]
    371 693 o
    378 756 v
    0 0 z
  EndSpiro
448 0 m 1
 448.327148438 21.1826171875 445.935546875 42.3984375 441 63 c 0
 434.045898438 92.0283203125 421.4609375 119.357421875 408 146 c 2
 264 431 l 2
 257.8671875 443.138671875 251.359375 455.250976562 242.325195312 465.41796875 c 0
 233.291015625 475.583984375 221.93359375 483.647460938 209.396484375 488.91796875 c 0
 184.321289062 499.4609375 156.200195312 499 129 499 c 2
 64 499 l 1
 64 397 l 1
 108 397 l 2
 116.086914062 397 124.196289062 397.006835938 132.2265625 396.0546875 c 0
 140.256835938 395.1015625 148.220703125 393.12890625 155.484375 389.573242188 c 0
 162.747070312 386.018554688 169.20703125 380.868164062 174.377929688 374.650390625 c 0
 179.549804688 368.43359375 183.359375 361.220703125 187 354 c 2
 310 110 l 2
 321.168945312 87.84375 333.126953125 65.841796875 340 42 c 0
 343.930664062 28.365234375 346.041015625 14.1904296875 346 0 c 1
 448 0 l 1
  Spiro
    448 0 v
    441 63 o
    408 146 [
    264 431 ]
    129 499 [
    64 499 v
    64 397 v
    108 397 ]
    187 354 [
    310 110 ]
    340 42 o
    346 0 v
    0 0 z
  EndSpiro
0 756 m 1
 0 0 l 1
 100 0 l 1
 100 756 l 1
 0 756 l 1
  Spiro
    0 756 v
    0 0 v
    100 0 v
    100 756 v
    0 0 z
  EndSpiro
EndSplineSet
EndChar
StartChar: L
Encoding: 76 76 32
Width: 512
VWidth: 0
Flags: HMW
LayerCount: 2
Fore
SplineSet
64 0 m 1
 448 0 l 1
 448 100 l 1
 64 100 l 1
 64 0 l 1
  Spiro
    64 0 v
    448 0 v
    448 100 v
    64 100 v
    0 0 z
  EndSpiro
64 756 m 1
 64 0 l 1
 164 0 l 1
 164 756 l 1
 64 756 l 1
  Spiro
    64 756 v
    64 0 v
    164 0 v
    164 756 v
    0 0 z
  EndSpiro
EndSplineSet
EndChar
StartChar: M
Encoding: 77 77 51
Width: 512
VWidth: 0
InSpiro: 1
Flags: HMW
LayerCount: 2
Fore
SplineSet
448 0 m 5
 348 0 l 5
 348 756 l 5
 448 756 l 5
 448 0 l 5
  Spiro
    448 0 v
    348 0 v
    348 756 v
    448 756 v
    0 0 z
  EndSpiro
0 0 m 1
 0 756 l 1
 100 756 l 1
 100 0 l 1
 0 0 l 1
  Spiro
    0 0 v
    0 756 v
    100 756 v
    100 0 v
    0 0 z
  EndSpiro
448 756 m 1
 323 513 l 2
 309.73828125 487.219726562 296.829101562 461.115234375 287.98828125 433.504882812 c 0
 279.147460938 405.89453125 274.249023438 376.990234375 274 348 c 1
 174 348 l 1
 183.163085938 445.834960938 224.734375 537.408203125 273 623 c 2
 348 756 l 1
 448 756 l 1
  Spiro
    323 513 ]
    274 348 v
    174 348 v
    273 623 [
    348 756 v
    448 756 v
    0 0 z
  EndSpiro
0 756 m 1
 100 756 l 1
 175 623 l 2
 223.265625 537.408203125 264.836914062 445.834960938 274 348 c 1
 174 348 l 1
 173.750976562 376.990234375 168.852539062 405.89453125 160.01171875 433.504882812 c 0
 151.170898438 461.115234375 138.26171875 487.219726562 125 513 c 2
 0 756 l 1
  Spiro
    0 756 v
    100 756 v
    175 623 ]
    274 348 v
    174 348 v
    125 513 [
    0 0 z
  EndSpiro
EndSplineSet
EndChar
StartChar: R
Encoding: 82 82 45
Width: 512
VWidth: 0
InSpiro: 1
Flags: HMW
LayerCount: 2
Fore
SplineSet
63 432 m 1
 63 332 l 1
 177 332 l 2
 205.639648438 332 234.68359375 332.793945312 262.083007812 341.12890625 c 0
 289.482421875 349.46484375 314.6484375 365.130859375 333.91796875 386.318359375 c 0
 353.1875 407.506835938 366.530273438 433.671875 374.661132812 461.1328125 c 0
 382.791015625 488.594726562 386.09375 517.360351562 386 546 c 0
 385.907226562 574.203125 382.509765625 602.512695312 374.340820312 629.506835938 c 0
 366.172851562 656.500976562 352.862304688 682.1796875 333.76171875 702.9296875 c 0
 314.661132812 723.6796875 289.80859375 738.974609375 262.802734375 747.103515625 c 0
 235.796875 755.232421875 207.203125 756 179 756 c 2
 0 756 l 1
 0 656 l 1
 176 656 l 2
 190.845703125 656 205.892578125 655.6015625 220.12109375 651.3671875 c 0
 234.349609375 647.131835938 247.46875 639.162109375 257.611328125 628.322265625 c 0
 267.75390625 617.481445312 274.896484375 604.04296875 279.354492188 589.8828125 c 0
 283.8125 575.72265625 285.77734375 560.84375 286 546 c 0
 286.228515625 530.801757812 284.640625 515.513671875 280.465820312 500.8984375 c 0
 276.291015625 486.283203125 269.321289062 472.333007812 259.165039062 461.0234375 c 0
 249.009765625 449.71484375 235.681640625 441.338867188 221.149414062 436.881835938 c 0
 206.618164062 432.424804688 191.200195312 432 176 432 c 2
 63 432 l 1
  Spiro
    63 432 v
    63 332 v
    177 332 ]
    386 546 o
    179 756 [
    0 756 v
    0 656 v
    176 656 ]
    286 546 o
    176 432 [
    0 0 z
  EndSpiro
448 0 m 1
 448.327148438 21.1826171875 445.935546875 42.3984375 441 63 c 0
 434.045898438 92.0283203125 421.4609375 119.357421875 408 146 c 2
 264 431 l 1
 187 354 l 1
 310 110 l 2
 321.168945312 87.84375 333.126953125 65.841796875 340 42 c 0
 343.930664062 28.365234375 346.041015625 14.1904296875 346 0 c 1
 448 0 l 1
  Spiro
    448 0 v
    441 63 o
    408 146 [
    264 431 v
    187 354 v
    310 110 ]
    340 42 o
    346 0 v
    0 0 z
  EndSpiro
0 756 m 1
 0 0 l 1
 100 0 l 1
 100 756 l 1
 0 756 l 1
  Spiro
    0 756 v
    0 0 v
    100 0 v
    100 756 v
    0 0 z
  EndSpiro
EndSplineSet
EndChar
StartChar: T
Encoding: 84 84 33
Width: 512
VWidth: 0
Flags: HMW
LayerCount: 2
Fore
SplineSet
64 656 m 1
 448 656 l 1
 448 756 l 1
 64 756 l 1
 64 656 l 1
  Spiro
    64 656 v
    448 656 v
    448 756 v
    64 756 v
    0 0 z
  EndSpiro
206 756 m 5
 206 0 l 5
 306 0 l 5
 306 756 l 5
 206 756 l 5
  Spiro
    206 756 v
    206 0 v
    306 0 v
    306 756 v
    0 0 z
  EndSpiro
EndSplineSet
EndChar
StartChar: U
Encoding: 85 85 36
Width: 512
VWidth: 0
InSpiro: 1
Flags: MW
LayerCount: 2
Fore
SplineSet
164 204 m 2
 164 190.280047871 164.207185074 176.451546052 167.130902703 163.046734914 c 0
 170.054620333 149.641923776 175.680915573 136.759771489 184.103903269 125.929703867 c 0
 192.526890965 115.099636246 203.632856911 106.404184676 216.085366739 100.644663392 c 0
 228.537876566 94.8851421087 242.280047871 91.9999999998 256 92 c 0
 269.719952129 92 283.462123434 94.8851421092 295.914633262 100.644663393 c 0
 308.367143089 106.404184677 319.473109035 115.099636247 327.896096731 125.929703869 c 0
 336.319084427 136.759771491 341.945379667 149.641923777 344.869097296 163.046734915 c 0
 347.792814926 176.451546053 348 190.280047871 348 204 c 2
 348 756 l 1
 448 756 l 1
 448 224 l 2
 448 195.485078258 447.557663652 166.739386976 441.405668832 138.896008558 c 0
 435.253674013 111.052630141 423.425855055 84.328096054 405.79007263 61.920955669 c 0
 388.154290206 39.5138152845 364.957737334 21.5933698417 339.018930028 9.74942465832 c 0
 313.080122722 -2.09452052503 284.514921742 -8.00000000051 256 -8 c 0
 227.485078258 -8 198.919877277 -2.09452052395 172.981069972 9.74942465998 c 0
 147.042262666 21.5933698439 123.845709794 39.5138152873 106.20992737 61.9209556723 c 0
 88.5741449455 84.3280960568 76.7463259872 111.052630143 70.594331168 138.89600856 c 0
 64.4423363487 166.739386977 64.0000000001 195.485078258 64 224 c 2
 64 756 l 1
 164 756 l 1
 164 204 l 2
  Spiro
    164 204 ]
    256 92 o
    348 204 [
    348 756 v
    448 756 v
    448 224 ]
    256 -8 o
    64 224 [
    64 756 v
    164 756 v
    0 0 z
  EndSpiro
EndSplineSet
EndChar
StartChar: V
Encoding: 86 86 37
Width: 512
VWidth: 0
InSpiro: 1
Flags: MW
LayerCount: 2
Fore
SplineSet
258 -8 m 1024,0,-1
  Spiro
    258 -8 {
    0 0 z
  EndSpiro
164 384 m 2,1,-1
 164 367.538848851 164.715831128 350.922791444 169.078216503 335.050202147 c 0,4,-1
 173.440601879 319.177612849 181.098459538 304.440746362 189 290 c 2,7,-1
 247 184 l 2,8,-1
 247.438522765 183.198561843 247.897690522 182.400153207 248.502224032 181.715211918 c 0,11,-1
 249.106757542 181.030270628 249.845855743 180.465311706 250.664592716 180.060003053 c 0,14,-1
 252.302066662 179.249385748 254.173862112 179.060346946 256 179 c 0,17,-1
 258.002032399 178.933840406 260.068875683 178.994546092 261.91055319 179.782413325 c 0,20,-1
 262.831391944 180.176346941 263.66954931 180.763591739 264.346947142 181.501331451 c 0,23,-1
 265.024344973 182.239071162 265.525655665 183.117885973 266 184 c 2,26,-1
 323 290 l 2,27,-1
 330.79275406 304.491788252 338.403772229 319.235412746 342.814173385 335.087456912 c 0,30,-1
 347.224574541 350.939501077 348 367.545853332 348 384 c 2,33,-1
 348 756 l 1,34,-1
 448 756 l 1,35,-1
 448 352 l 2,36,-1
 448 337.574073256 446.578907704 323.034518196 441.80163913 309.422572435 c 0,39,-1
 437.024370555 295.810626675 430.239108634 283.006955288 424 270 c 2,42,-1
 306 24 l 2,43,-1
 303.707535085 19.2207934814 301.31847128 14.4496671286 298.127594866 10.2171125754 c 0,46,-1
 294.936718452 5.98455802226 290.984637405 2.31957091364 286.475508182 -0.466818145292 c 0,49,-1
 277.457249737 -6.03959626289 266.601002939 -8.05981667197 256 -8 c 0,52,-1
 245.432597225 -7.94037291881 234.648429014 -5.82107288604 225.663162395 -0.258830480478 c 0,55,-1
 221.170529085 2.52229072221 217.219818977 6.15727515855 214.004181533 10.3498954645 c 0,58,-1
 210.788544089 14.5425157704 208.347574246 19.2663666851 206 24 c 2,61,-1
 84 270 l 2,62,-1
 77.6686101635 282.766572949 71.5396008328 295.750206581 68.0549690681 309.567920705 c 0,65,-1
 64.5703373035 323.385634828 64 337.749670807 64 352 c 2,68,-1
 64 756 l 1,69,-1
 164 756 l 1,70,-1
 164 384 l 2,1,-1
  Spiro
    164 384 ]
    189 290 [
    247 184 ]
    256 179 o
    266 184 [
    323 290 ]
    348 384 [
    348 756 v
    448 756 v
    448 352 ]
    424 270 [
    306 24 ]
    256 -8 o
    206 24 [
    84 270 ]
    64 352 [
    64 756 v
    164 756 v
    0 0 z
  EndSpiro
EndSplineSet
EndChar
StartChar: W
Encoding: 87 87 53
Width: 512
VWidth: 0
InSpiro: 1
Flags: HW
HStem: 736 20G<0 100 476 576>
VStem: 0 100<263.769 756> 238 100<305.764 427> 476 100<264.337 756>
CounterMasks: 1 70
LayerCount: 2
Fore
SplineSet
411 -8 m 1024,0,-1
  Spiro
    411 -8 {
    0 0 z
  EndSpiro
238 430 m 1024,1,-1
  Spiro
    238 430 {
    0 0 z
  EndSpiro
338 352 m 2,2,-1
 338 335.572265625 339.018554688 319.004882812 343.625 303.236328125 c 0,5,-1
 348.231445312 287.467773438 355.653320312 272.693359375 363 258 c 2,8,-1
 400 184 l 2,9,-1
 400.411132812 183.178710938 400.845703125 182.359375 401.444335938 181.663085938 c 0,12,-1
 402.041992188 180.966796875 402.791015625 180.401367188 403.620117188 180.006835938 c 0,15,-1
 405.279296875 179.21875 407.165039062 179.0859375 409 179 c 0,18,-1
 410.017578125 178.952148438 411.038085938 178.923828125 412.055664062 178.984375 c 0,21,-1
 413.072265625 179.045898438 414.092773438 179.2109375 415.038085938 179.58984375 c 0,24,-1
 415.983398438 179.969726562 416.83984375 180.57421875 417.498046875 181.3515625 c 0,27,-1
 418.15625 182.129882812 418.595703125 183.064453125 419 184 c 2,30,-1
 451 258 l 2,31,-1
 457.50390625 273.041015625 464.583984375 287.887695312 469.556640625 303.502929688 c 0,34,-1
 474.529296875 319.1171875 476 335.612304688 476 352 c 2,37,-1
 476 756 l 1,38,-1
 576 756 l 1,39,-1
 576 320 l 2,40,-1
 576 305.59375 574.3125 291.100585938 569.321289062 277.586914062 c 0,43,-1
 564.330078125 264.073242188 557.7421875 251.211914062 552 238 c 2,46,-1
 459 24 l 2,47,-1
 456.872070312 19.1044921875 454.6328125 14.2119140625 451.497070312 9.892578125 c 0,50,-1
 448.361328125 5.5732421875 444.377929688 1.865234375 439.809570312 -0.8955078125 c 0,53,-1
 430.672851562 -6.41796875 419.674804688 -8.1396484375 409 -8 c 0,56,-1
 398.407226562 -7.861328125 387.577148438 -5.904296875 378.521484375 -0.40625 c 0,59,-1
 373.993164062 2.3427734375 370.015625 5.9775390625 366.8203125 10.203125 c 0,62,-1
 363.625976562 14.427734375 361.260742188 19.2099609375 359 24 c 2,65,-1
 258 238 l 2,66,-1
 251.923828125 250.874023438 245.90234375 263.872070312 242.3046875 277.646484375 c 0,69,-1
 238.708007812 291.420898438 238 305.763671875 238 320 c 2,72,-1
 238 427 l 1,73,-1
 338 427 l 1,74,-1
 338 352 l 2,2,-1
  Spiro
    338 352 ]
    363 258 [
    400 184 ]
    409 179 o
    419 184 [
    451 258 ]
    476 352 [
    476 756 v
    576 756 v
    576 320 ]
    552 238 [
    459 24 ]
    409 -8 o
    359 24 [
    258 238 ]
    238 320 [
    238 427 v
    338 427 v
    0 0 z
  EndSpiro
169 -8 m 1024,75,-1
  Spiro
    169 -8 {
    0 0 z
  EndSpiro
100 352 m 2,76,-1
 100 335.60546875 101.377929688 319.095703125 106.276367188 303.44921875 c 0,79,-1
 111.173828125 287.803710938 118.322265625 272.973632812 125 258 c 2,82,-1
 158 184 l 2,83,-1
 158.377929688 183.15234375 158.783203125 182.305664062 159.368164062 181.584960938 c 0,86,-1
 159.954101562 180.864257812 160.706054688 180.282226562 161.544921875 179.88671875 c 0,89,-1
 163.224609375 179.095703125 165.143554688 179.0234375 167 179 c 0,92,-1
 168.006835938 178.987304688 169.015625 178.993164062 170.01953125 179.080078125 c 0,95,-1
 171.022460938 179.16796875 172.025390625 179.348632812 172.958984375 179.7265625 c 0,98,-1
 173.892578125 180.104492188 174.744140625 180.689453125 175.415039062 181.440429688 c 0,101,-1
 176.086914062 182.190429688 176.559570312 183.094726562 177 184 c 2,104,-1
 213 258 l 2,105,-1
 220.182617188 272.764648438 227.537109375 287.551757812 232.21484375 303.290039062 c 0,108,-1
 236.892578125 319.028320312 238 335.581054688 238 352 c 2,111,-1
 238 427 l 1,112,-1
 338 427 l 1,113,-1
 338 320 l 2,114,-1
 338 305.5859375 336.423828125 291.073242188 331.522460938 277.518554688 c 0,117,-1
 326.62109375 263.963867188 319.950195312 251.127929688 314 238 c 2,120,-1
 217 24 l 2,121,-1
 214.8046875 19.1572265625 212.501953125 14.3203125 209.3359375 10.048828125 c 0,124,-1
 206.170898438 5.7763671875 202.190429688 2.10546875 197.642578125 -0.6494140625 c 0,127,-1
 188.546875 -6.1591796875 177.633789062 -8 167 -8 c 0,130,-1
 156.366210938 -8 145.453125 -6.1591796875 136.357421875 -0.6494140625 c 0,133,-1
 131.809570312 2.10546875 127.829101562 5.7763671875 124.6640625 10.048828125 c 0,136,-1
 121.498046875 14.3203125 119.1953125 19.1572265625 117 24 c 2,139,-1
 20 238 l 2,140,-1
 14.126953125 250.956054688 8.189453125 263.967773438 4.5029296875 277.708007812 c 0,143,-1
 0.81640625 291.447265625 0 305.774414062 0 320 c 2,146,-1
 0 756 l 1,147,-1
 100 756 l 1,148,-1
 100 352 l 2,76,-1
  Spiro
    100 352 ]
    125 258 [
    158 184 ]
    167 179 o
    177 184 [
    213 258 ]
    238 352 [
    238 427 v
    338 427 v
    338 320 ]
    314 238 [
    217 24 ]
    167 -8 o
    117 24 [
    20 238 ]
    0 320 [
    0 756 v
    100 756 v
    0 0 z
  EndSpiro
EndSplineSet
EndChar
StartChar: X
Encoding: 88 88 49
Width: 512
VWidth: 0
InSpiro: 1
Flags: HW
VStem: 64 100<0 119.574 633.006 756> 348 100<0 119.574 633.006 756>
LayerCount: 2
Fore
SplineSet
164 0 m 5
 162.108398438 27.30859375 165.2109375 54.9052734375 172.606445312 81.26171875 c 4
 180.000976562 107.6171875 191.811523438 132.489257812 204 157 c 6
 387 525 l 6
 404.954101562 561.10546875 422.372070312 597.711914062 433.565429688 636.450195312 c 4
 444.7578125 675.188476562 449.907226562 715.721679688 448 756 c 5
 348 756 l 5
 349.254882812 725.130859375 345.197265625 694.103515625 336.592773438 664.431640625 c 4
 327.987304688 634.758789062 314.696289062 606.692382812 301 579 c 6
 118 209 l 6
 101.841796875 176.331054688 86.1767578125 143.200195312 76.234375 108.135742188 c 4
 66.2919921875 73.072265625 61.9072265625 36.38671875 64 0 c 5
 164 0 l 5
  Spiro
    204 157 [
    387 525 ]
    448 756 v
    348 756 v
    301 579 [
    118 209 ]
    64 0 v
    164 0 v
    0 0 z
  EndSpiro
348 0 m 1
 448 0 l 1
 450.092376493 36.3863148532 445.707643201 73.0718569736 435.765259527 108.135954778 c 0
 425.822875853 143.200052583 410.157912667 176.330996247 394 209 c 2
 211 579 l 2
 197.303369434 606.692641035 184.012407037 634.75904847 175.407668716 664.431233 c 0
 166.802930394 694.10341753 162.745172989 725.130833093 164 756 c 1
 64 756 l 1
 62.0926140572 715.722120765 67.2421038552 675.188337437 78.4349703709 636.449914445 c 0
 89.6278368866 597.711491453 107.045530901 561.105161904 125 525 c 2
 308 157 l 2
 320.188746034 132.489297593 331.999152148 107.617569144 339.394005317 81.2612376672 c 0
 346.788858487 54.9049061899 349.891697992 27.3086349174 348 0 c 1
  Spiro
    348 0 v
    448 0 v
    394 209 [
    211 579 ]
    164 756 v
    64 756 v
    125 525 [
    308 157 ]
    0 0 z
  EndSpiro
EndSplineSet
EndChar
StartChar: Y
Encoding: 89 89 39
Width: 512
VWidth: 0
InSpiro: 1
Flags: MW
LayerCount: 2
Fore
SplineSet
206 394 m 1
 206 0 l 1
 306 0 l 1
 306 394 l 1
 206 394 l 1
  Spiro
    206 394 v
    206 0 v
    306 0 v
    306 394 v
    0 0 z
  EndSpiro
258 255 m 1024
  Spiro
    258 255 {
    0 0 z
  EndSpiro
164 647 m 2
 164 756 l 1
 64 756 l 1
 64 615 l 2
 64 600.749670807 64.5703373035 586.385634828 68.0549690681 572.567920705 c 0
 71.5396008328 558.750206581 77.6686101635 545.766572949 84 533 c 2
 206 287 l 2
 208.347574246 282.266366685 210.788544089 277.54251577 214.004181533 273.349895464 c 0
 217.219818977 269.157275159 221.170529085 265.522290722 225.663162395 262.74116952 c 0
 234.648429014 257.178927114 245.432597225 255.059627081 256 255 c 0
 266.601002939 254.940183328 277.457249737 256.960403737 286.475508182 262.533181855 c 0
 290.984637405 265.319570914 294.936718452 268.984558022 298.127594866 273.217112575 c 0
 301.31847128 277.449667129 303.707535085 282.220793481 306 287 c 2
 424 533 l 2
 430.239108634 546.006955288 437.024370555 558.810626675 441.80163913 572.422572435 c 0
 446.578907704 586.034518196 448 600.574073256 448 615 c 2
 448 756 l 1
 348 756 l 1
 348 647 l 2
 348 630.545853332 347.224574541 613.939501077 342.814173385 598.087456912 c 0
 338.403772229 582.235412746 330.79275406 567.491788252 323 553 c 2
 266 447 l 2
 265.525655665 446.117885973 265.024344973 445.239071162 264.346947142 444.501331451 c 0
 263.66954931 443.763591739 262.831391944 443.176346941 261.91055319 442.782413325 c 0
 260.068875683 441.994546092 258.002032399 441.933840406 256 442 c 0
 254.173862112 442.060346946 252.302066662 442.249385748 250.664592716 443.060003053 c 0
 249.845855743 443.465311706 249.106757542 444.030270628 248.502224032 444.715211918 c 0
 247.897690522 445.400153207 247.438522765 446.198561843 247 447 c 2
 189 553 l 2
 181.098459538 567.440746362 173.440601879 582.177612849 169.078216503 598.050202147 c 0
 164.715831128 613.922791444 164 630.538848851 164 647 c 2
  Spiro
    164 756 v
    64 756 v
    64 615 ]
    84 533 [
    206 287 ]
    256 255 o
    306 287 [
    424 533 ]
    448 615 [
    448 756 v
    348 756 v
    348 647 ]
    323 553 [
    266 447 ]
    256 442 o
    247 447 [
    189 553 ]
    164 647 [
    0 0 z
  EndSpiro
EndSplineSet
EndChar
StartChar: bracketleft
Encoding: 91 91 86
Width: 512
VWidth: 0
InSpiro: 1
Flags: W
VStem: 206 218
LayerCount: 2
Fore
SplineSet
206 768 m 1
 206 0 l 1
 424 0 l 1
 424 100 l 1
 306 100 l 1
 306 668 l 1
 424 668 l 1
 424 768 l 1
 206 768 l 1
  Spiro
    206 768 v
    206 0 v
    424 0 v
    424 100 v
    306 100 v
    306 668 v
    424 668 v
    424 768 v
    0 0 z
  EndSpiro
EndSplineSet
EndChar
StartChar: backslash
Encoding: 92 92 47
Width: 512
VWidth: 0
InSpiro: 1
Flags: HW
VStem: 64 100<633.006 756> 348 100<0 119.574>
LayerCount: 2
Fore
SplineSet
348 0 m 5
 448 0 l 5
 450.092376493 36.3863148532 445.707643201 73.0718569736 435.765259527 108.135954778 c 4
 425.822875853 143.200052583 410.157912667 176.330996247 394 209 c 6
 211 579 l 6
 197.303369434 606.692641035 184.012407037 634.75904847 175.407668716 664.431233 c 4
 166.802930394 694.10341753 162.745172989 725.130833093 164 756 c 5
 64 756 l 5
 62.0926140572 715.722120765 67.2421038552 675.188337437 78.4349703709 636.449914445 c 4
 89.6278368866 597.711491453 107.045530901 561.105161904 125 525 c 6
 308 157 l 6
 320.188746034 132.489297593 331.999152148 107.617569144 339.394005317 81.2612376672 c 4
 346.788858487 54.9049061899 349.891697992 27.3086349174 348 0 c 5
  Spiro
    348 0 v
    448 0 v
    394 209 [
    211 579 ]
    164 756 v
    64 756 v
    125 525 [
    308 157 ]
    0 0 z
  EndSpiro
EndSplineSet
EndChar
StartChar: bracketright
Encoding: 93 93 69
Width: 512
VWidth: 0
InSpiro: 1
Flags: MW
LayerCount: 2
Fore
SplineSet
306 768 m 1
 306 0 l 1
 88 0 l 1
 88 100 l 1
 206 100 l 1
 206 668 l 1
 88 668 l 1
 88 768 l 1
 306 768 l 1
  Spiro
    306 768 v
    306 0 v
    88 0 v
    88 100 v
    206 100 v
    206 668 v
    88 668 v
    88 768 v
    0 0 z
  EndSpiro
EndSplineSet
EndChar
StartChar: d
Encoding: 100 100 10
Width: 512
VWidth: 0
InSpiro: 1
Flags: HMW
LayerCount: 2
Fore
SplineSet
348 768 m 1
 348 0 l 1
 448 0 l 1
 448 768 l 1
 348 768 l 1
  Spiro
    348 768 v
    348 0 v
    448 0 v
    448 768 v
    0 0 z
  EndSpiro
64 330 m 2
 64 241 l 2
 64.0000000004 209.444240655 64.6048552962 177.562921234 72.3305605981 146.96750613 c 0
 80.0562658999 116.372091025 94.8434637628 87.4424518247 116.098578859 64.1189437252 c 0
 137.353693956 40.7954356246 164.654558893 23.2819446583 194.213923135 12.2361339823 c 0
 223.773287377 1.19032330632 255.446300259 -3.63947188694 287 -4 c 0
 340.774083685 -4.6144150791 394.448090923 7.10411789693 444 28 c 1
 410 124 l 1
 370.673646157 108.573139444 329.228409566 97.1452330438 287 96 c 0
 270.185874187 95.5440014739 253.207566559 97.0225919316 237.091583729 101.839007501 c 0
 220.975600899 106.655423071 205.790580326 114.97682809 193.797673092 126.770594987 c 0
 181.804765859 138.564361884 173.284041265 153.720254933 168.823456892 169.938329683 c 0
 164.362872519 186.156404432 164 203.179691991 164 220 c 2
 164 352 l 2
 164 368.588914106 164.331380491 385.355334236 168.474132711 401.418636365 c 0
 172.616884931 417.481938494 180.533156743 432.628309476 191.835524576 444.771149037 c 0
 203.137892409 456.913988598 217.592457811 465.951535031 233.178595597 471.63170934 c 0
 248.764733383 477.311883649 265.412588107 479.77675588 282 480 c 0
 307.503869849 480.343247579 332.996125115 475.624336884 357 467 c 1
 377 562 l 1
 346.69959333 573.462008698 314.394267136 579.67790607 282 580 c 0
 250.427560033 580.313922561 218.67458576 574.967067473 189.437165922 563.04688316 c 0
 160.199746084 551.126698847 133.633609283 532.441112264 113.2435039 508.333828815 c 0
 92.8533985174 484.226545364 78.9767810844 454.908462107 71.754595804 424.171553469 c 0
 64.5324105235 393.43464483 64 361.574000584 64 330 c 2
  Spiro
    64 241 ]
    287 -4 o
    444 28 v
    410 124 v
    287 96 o
    164 220 [
    164 352 ]
    282 480 o
    357 467 v
    377 562 v
    282 580 o
    64 330 [
    0 0 z
  EndSpiro
EndSplineSet
EndChar
StartChar: e
Encoding: 101 101 21
Width: 512
VWidth: 0
InSpiro: 1
Flags: HMW
HStem: -4 100<203.988 394.033> 238 64<164 348> 480 100<198.346 313.654>
VStem: 64 100<135.58 241 330 444.649> 348 100<338 444.649>
LayerCount: 2
Fore
SplineSet
64 330 m 2
 64 359.759653005 64.3409136871 389.709166541 69.9764779974 418.930346563 c 0
 75.6120423077 448.151526585 86.553930168 476.524247724 103.586083916 500.927990996 c 0
 120.618237663 525.331734267 143.596113563 545.574988874 170.03629082 559.233465128 c 0
 196.476468077 572.891941381 226.240346995 580 256 580 c 0
 285.759653005 580 315.523531923 572.89194138 341.96370918 559.233465127 c 0
 368.403886437 545.574988874 391.381762337 525.331734266 408.413916084 500.927990995 c 0
 425.446069832 476.524247723 436.387957692 448.151526584 442.023522003 418.930346562 c 0
 447.659086313 389.709166541 448 359.759653004 448 330 c 2
 448 238 l 1
 164 238 l 1
 164 338 l 1
 348 338 l 1
 348 352 l 2
 348 366.848443498 347.881618634 381.771799935 345.413069869 396.413607927 c 0
 342.944521104 411.05541592 338.10208223 425.395776041 330.224673234 437.982384075 c 0
 322.347264239 450.56899211 311.457303405 461.307382096 298.565007684 468.67385923 c 0
 285.672711964 476.040336364 270.848443498 480 256 480 c 0
 241.151556502 480 226.327288036 476.040336364 213.434992316 468.67385923 c 0
 200.542696595 461.307382096 189.652735761 450.56899211 181.775326766 437.982384075 c 0
 173.89791777 425.39577604 169.055478896 411.05541592 166.586930131 396.413607927 c 0
 164.118381366 381.771799934 164 366.848443498 164 352 c 2
 164 220 l 2
 164 203.179691991 164.362872519 186.156404432 168.823456892 169.938329683 c 0
 173.284041265 153.720254933 181.804765859 138.564361884 193.797673092 126.770594987 c 0
 205.790580326 114.97682809 220.975600899 106.655423071 237.091583729 101.839007501 c 0
 253.207566559 97.0225919316 270.185874187 95.5440014739 287 96 c 0
 329.228409566 97.1452330438 370.673646157 108.573139444 410 124 c 1
 444 28 l 1
 394.448090923 7.10411789693 340.774083685 -4.6144150791 287 -4 c 0
 255.446300259 -3.63947188694 223.773287377 1.19032330632 194.213923135 12.2361339823 c 0
 164.654558893 23.2819446583 137.353693956 40.7954356246 116.098578859 64.1189437252 c 0
 94.8434637628 87.4424518247 80.0562658999 116.372091025 72.3305605981 146.96750613 c 0
 64.6048552962 177.562921234 64.0000000004 209.444240655 64 241 c 2
 64 330 l 2
  Spiro
    64 330 ]
    256 580 o
    448 330 [
    448 238 v
    164 238 v
    164 338 v
    348 338 v
    348 352 ]
    256 480 o
    164 352 [
    164 220 ]
    287 96 o
    410 124 v
    444 28 v
    287 -4 o
    64 241 [
    0 0 z
  EndSpiro
EndSplineSet
EndChar
StartChar: f
Encoding: 102 102 6
Width: 512
VWidth: 0
InSpiro: 1
Flags: W
HStem: 0 21G<192 292> 402 100<92 428> 664 98<320.771 421.682>
VStem: 192 100<0 633.926>
LayerCount: 2
Fore
SplineSet
92 502 m 1
 428 502 l 1
 428 402 l 1
 92 402 l 1
 92 502 l 1
  Spiro
    92 502 v
    428 502 v
    428 402 v
    92 402 v
    0 0 z
  EndSpiro
420 664 m 1
 401.935546875 670.91015625 381.684570312 671.993164062 363 667 c 0
 338.401367188 660.42578125 317.05078125 642.967773438 305.278320312 620.389648438 c 0
 299.392578125 609.100585938 295.788085938 596.704101562 293.94140625 584.107421875 c 0
 292.09375 571.510742188 292 558.731445312 292 546 c 2
 292 0 l 1
 192 0 l 1
 192 522 l 2
 192 549.3984375 192.268554688 576.938476562 196.923828125 603.938476562 c 0
 201.578125 630.938476562 210.625 657.3203125 224.944335938 680.6796875 c 0
 253.58203125 727.397460938 303.793945312 759.975585938 358 768 c 0
 386.319335938 772.192382812 415.54296875 770.1015625 443 762 c 1
 420 664 l 1
  Spiro
    420 664 v
    363 667 o
    292 546 [
    292 0 v
    192 0 v
    192 522 ]
    358 768 o
    443 762 v
    0 0 z
  EndSpiro
EndSplineSet
EndChar
StartChar: i
Encoding: 105 105 5
Width: 512
VWidth: 0
InSpiro: 1
Flags: HW
HStem: -8 100<210.189 256> 556 20G<64 164> 644 116<75.4947 156.505>
VStem: 58 116<661.495 742.505> 64 100<138.253 576>
LayerCount: 2
Fore
SplineSet
58 702 m 0xf0
 58 717.184570312 64.2509765625 732.275390625 74.98828125 743.01171875 c 0
 85.724609375 753.749023438 100.815429688 760 116 760 c 0
 131.184570312 760 146.275390625 753.749023438 157.01171875 743.01171875 c 0
 167.749023438 732.275390625 174 717.184570312 174 702 c 0
 174 686.815429688 167.749023438 671.724609375 157.01171875 660.98828125 c 0
 146.275390625 650.250976562 131.184570312 644 116 644 c 0
 100.815429688 644 85.724609375 650.250976562 74.98828125 660.98828125 c 0
 64.2509765625 671.724609375 58 686.815429688 58 702 c 0xf0
  Spiro
    58 702 o
    116 760 o
    174 702 o
    116 644 o
    0 0 z
  EndSpiro
64 576 m 1xe8
 164 576 l 1
 164 304 l 2
 164 270.65085747 160.779789939 237.193305871 164 204 c 0
 166.514002417 178.08614668 174.707670895 152.261939298 190.765574595 131.768239516 c 0
 206.823478296 111.274539733 230.394542565 96.7125949927 256 92 c 1
 256 -8 l 1
 200.992922008 -8.78868315607 146.692330627 18.1305436451 112.605024067 61.3098926656 c 0
 95.5613707877 82.8995671759 83.3315079684 108.108429812 75.6828062597 134.529965058 c 0
 68.0341045509 160.951500304 64.9393986605 188.509680018 64 216 c 0
 62.8615328161 249.315809882 64 282.664743954 64 316 c 2
 64 576 l 1xe8
  Spiro
    64 576 v
    164 576 v
    164 304 ]
    164 204 o
    256 92 v
    256 -8 v
    64 216 o
    64 316 [
    0 0 z
  EndSpiro
EndSplineSet
EndChar
StartChar: j
Encoding: 106 106 20
Width: 512
VWidth: 0
InSpiro: 1
Flags: MW
LayerCount: 2
Fore
SplineSet
284 128 m 1
 384 128 l 1
 384 576 l 1
 284 576 l 1
 284 128 l 1
  Spiro
    284 128 v
    384 128 v
    384 576 v
    284 576 v
    0 0 z
  EndSpiro
275 702 m 0
 275 717.184570312 281.250976562 732.275390625 291.98828125 743.01171875 c 0
 302.724609375 753.749023438 317.815429688 760 333 760 c 0
 348.184570312 760 363.275390625 753.749023438 374.01171875 743.01171875 c 0
 384.749023438 732.275390625 391 717.184570312 391 702 c 0
 391 686.815429688 384.749023438 671.724609375 374.01171875 660.98828125 c 0
 363.275390625 650.250976562 348.184570312 644 333 644 c 0
 317.815429688 644 302.724609375 650.250976562 291.98828125 660.98828125 c 0
 281.250976562 671.724609375 275 686.815429688 275 702 c 0
  Spiro
    275 702 o
    333 760 o
    391 702 o
    333 644 o
    0 0 z
  EndSpiro
64 0 m 1
 43 -107 l 1
 89 -117 l 2
 139.67578125 -128.016601562 191.897460938 -138.826171875 243 -130 c 0
 264.364257812 -126.310546875 285.22265625 -119.168945312 303.83984375 -108.059570312 c 0
 322.458007812 -96.9501953125 338.692382812 -81.8486328125 351 -64 c 0
 366.342773438 -41.7490234375 375.334960938 -15.552734375 379.66796875 11.1259765625 c 0
 384.000976562 37.8046875 384 64.9716796875 384 92 c 2
 384 128 l 1
 284 128 l 1
 284 98 l 2
 284 79.9306640625 284.071289062 61.7177734375 280.557617188 43.994140625 c 0
 277.04296875 26.2705078125 269.5 9.0478515625 257 -4 c 0
 246.514648438 -14.9443359375 232.818359375 -22.658203125 218.158203125 -26.5078125 c 0
 203.498046875 -30.3564453125 188.048828125 -30.4814453125 173.015625 -28.548828125 c 0
 142.94921875 -24.6845703125 114.147460938 -14.328125 85 -6 c 2
 64 0 l 1
  Spiro
    64 0 v
    43 -107 v
    89 -117 ]
    243 -130 o
    351 -64 o
    384 92 [
    384 128 v
    284 128 v
    284 98 ]
    257 -4 o
    85 -6 [
    0 0 z
  EndSpiro
EndSplineSet
EndChar
StartChar: k
Encoding: 107 107 26
Width: 512
VWidth: 0
InSpiro: 1
Flags: MW
LayerCount: 2
Fore
SplineSet
448 102 m 1
 431.271484375 99.9560546875 413.927734375 105.018554688 400.49609375 115.198242188 c 0
 387.064453125 125.377929688 378.079101562 140.208984375 370 155 c 2
 240 393 l 1
 160 329 l 1
 262 133 l 2
 280.842773438 96.7919921875 301.853515625 60.4482421875 333.793945312 35.0341796875 c 0
 365.734375 9.6201171875 407.354492188 -3.73828125 448 0 c 1
 448 102 l 1
  Spiro
    448 102 v
    370 155 [
    240 393 v
    160 329 v
    262 133 ]
    448 0 v
    0 0 z
  EndSpiro
384 476 m 1
 384 576 l 1
 358.870117188 578.092773438 333.2734375 572.559570312 310.880859375 560.96484375 c 0
 288.489257812 549.369140625 269.831054688 531.831054688 252 514 c 2
 80 342 l 1
 80 199 l 1
 325 444 l 2
 333.11328125 452.11328125 341.518554688 460.10546875 351.421875 465.900390625 c 0
 361.325195312 471.6953125 372.547851562 475.280273438 384 476 c 1
  Spiro
    384 476 v
    384 576 v
    252 514 [
    80 342 v
    80 199 v
    325 444 ]
    0 0 z
  EndSpiro
0 768 m 1
 0 0 l 1
 100 0 l 1
 100 768 l 1
 0 768 l 1
  Spiro
    0 768 v
    0 0 v
    100 0 v
    100 768 v
    0 0 z
  EndSpiro
EndSplineSet
EndChar
StartChar: l
Encoding: 108 108 4
Width: 512
VWidth: 0
InSpiro: 1
Flags: W
HStem: 0 100<156 356> 668 100<156 306>
VStem: 156 150<668 768> 206 100<0 768>
LayerCount: 2
Fore
SplineSet
156 768 m 1xe0
 306 768 l 1
 306 668 l 1
 156 668 l 1
 156 768 l 1xe0
  Spiro
    156 768 v
    306 768 v
    306 668 v
    156 668 v
    0 0 z
  EndSpiro
156 100 m 1
 356 100 l 1
 356 0 l 1
 156 0 l 1
 156 100 l 1
  Spiro
    156 100 v
    356 100 v
    356 0 v
    156 0 v
    0 0 z
  EndSpiro
206 768 m 1xd0
 306 768 l 1xe0
 306 0 l 1
 206 0 l 1
 206 768 l 1xd0
  Spiro
    206 768 v
    306 768 v
    306 0 v
    206 0 v
    0 0 z
  EndSpiro
EndSplineSet
EndChar
StartChar: m
Encoding: 109 109 3
Width: 512
VWidth: 0
InSpiro: 1
Flags: HW
HStem: 0 21G<0 100 476 576> 484 100<123.785 220.196 355.804 452.215>
VStem: 0 100<0 460.267> 244 88<224 384.759> 476 100<0 460.267>
CounterMasks: 1 38
LayerCount: 2
Fore
SplineSet
100 0 m 1
 0 0 l 1
 0 352 l 2
 0 379.124023438 0.2138671875 406.385742188 4.7490234375 433.127929688 c 0
 9.28515625 459.870117188 18.189453125 486.056640625 32.689453125 508.979492188 c 0
 47.1904296875 531.901367188 67.2490234375 551.380859375 90.955078125 564.560546875 c 0
 114.662109375 577.739257812 141.881835938 584.548828125 169 584 c 0
 195.611328125 583.461914062 222.03125 575.848632812 244.90625 562.240234375 c 0
 267.78125 548.631835938 286.990234375 529.09765625 300.845703125 506.372070312 c 0
 314.700195312 483.645507812 323.169921875 457.889648438 327.484375 431.625 c 0
 331.798828125 405.361328125 332 378.616210938 332 352 c 2
 332 224 l 1
 244 224 l 1
 244 372 l 2
 244 384.758789062 243.967773438 397.561523438 242.270507812 410.206054688 c 0
 240.572265625 422.8515625 237.163085938 435.369140625 231.108398438 446.599609375 c 0
 225.053710938 457.830078125 216.301757812 467.698242188 205.458984375 474.422851562 c 0
 194.616210938 481.146484375 181.744140625 484.610351562 169 484 c 0
 156.75390625 483.413085938 144.751953125 479.083984375 134.788085938 471.940429688 c 0
 124.825195312 464.795898438 116.9375 454.936523438 111.50390625 443.946289062 c 0
 100.635742188 421.965820312 100 396.520507812 100 372 c 2
 100 0 l 1
  Spiro
    100 0 v
    0 0 v
    0 352 ]
    169 584 o
    332 352 [
    332 224 v
    244 224 v
    244 372 ]
    169 484 o
    100 372 [
    0 0 z
  EndSpiro
332 224 m 1
 244 224 l 1
 244 352 l 2
 244 378.616210938 244.201171875 405.361328125 248.515625 431.625 c 0
 252.830078125 457.889648438 261.299804688 483.645507812 275.154296875 506.372070312 c 0
 289.009765625 529.09765625 308.21875 548.631835938 331.09375 562.240234375 c 0
 353.96875 575.848632812 380.388671875 583.461914062 407 584 c 0
 434.118164062 584.548828125 461.337890625 577.739257812 485.044921875 564.560546875 c 0
 508.750976562 551.380859375 528.809570312 531.901367188 543.310546875 508.979492188 c 0
 557.810546875 486.056640625 566.71484375 459.870117188 571.250976562 433.127929688 c 0
 575.786132812 406.385742188 576 379.124023438 576 352 c 2
 576 0 l 1
 476 0 l 1
 476 372 l 2
 476 396.520507812 475.364257812 421.965820312 464.49609375 443.946289062 c 0
 459.0625 454.936523438 451.174804688 464.795898438 441.211914062 471.940429688 c 0
 431.248046875 479.083984375 419.24609375 483.413085938 407 484 c 0
 394.255859375 484.610351562 381.383789062 481.146484375 370.541015625 474.422851562 c 0
 359.698242188 467.698242188 350.946289062 457.830078125 344.891601562 446.599609375 c 0
 338.836914062 435.369140625 335.427734375 422.8515625 333.729492188 410.206054688 c 0
 332.032226562 397.561523438 332 384.758789062 332 372 c 2
 332 224 l 1
  Spiro
    332 224 v
    244 224 v
    244 352 ]
    407 584 o
    576 352 [
    576 0 v
    476 0 v
    476 372 ]
    407 484 o
    332 372 [
    0 0 z
  EndSpiro
EndSplineSet
EndChar
StartChar: n
Encoding: 110 110 1
Width: 512
VWidth: 0
InSpiro: 1
Flags: MW
LayerCount: 2
Fore
SplineSet
164 0 m 1
 64 0 l 1
 64 352 l 2
 64 380.514921742 64.4423363484 409.260613024 70.5943311677 437.103991442 c 0
 76.7463259869 464.947369859 88.5741449453 491.671903946 106.20992737 514.079044331 c 0
 123.845709794 536.486184715 147.042262666 554.406630158 172.981069972 566.250575342 c 0
 198.919877278 578.094520525 227.485078258 584.000000001 256 584 c 0
 284.514921742 584 313.080122723 578.094520524 339.018930028 566.25057534 c 0
 364.957737334 554.406630156 388.154290206 536.486184713 405.79007263 514.079044328 c 0
 423.425855055 491.671903943 435.253674013 464.947369857 441.405668832 437.10399144 c 0
 447.557663651 409.260613023 448 380.514921742 448 352 c 2
 448 0 l 1
 348 0 l 1
 348 372 l 2
 348 385.719952129 347.792814926 399.548453948 344.869097297 412.953265086 c 0
 341.945379667 426.358076224 336.319084427 439.240228511 327.896096731 450.070296133 c 0
 319.473109035 460.900363754 308.367143089 469.595815324 295.914633261 475.355336608 c 0
 283.462123434 481.114857891 269.719952129 484 256 484 c 0
 242.280047871 484 228.537876566 481.114857891 216.085366738 475.355336607 c 0
 203.632856911 469.595815323 192.526890965 460.900363753 184.103903269 450.070296131 c 0
 175.680915573 439.240228509 170.054620333 426.358076223 167.130902704 412.953265085 c 0
 164.207185074 399.548453947 164 385.719952129 164 372 c 2
 164 0 l 1
  Spiro
    164 0 v
    64 0 v
    64 352 ]
    256 584 o
    448 352 [
    448 0 v
    348 0 v
    348 372 ]
    256 484 o
    164 372 [
    0 0 z
  EndSpiro
EndSplineSet
EndChar
StartChar: o
Encoding: 111 111 0
Width: 512
VWidth: 0
InSpiro: 1
Flags: HW
HStem: -8 100<195.875 316.125> 484 100<195.875 316.125>
VStem: 64 100<123.913 452.087> 348 100<123.913 452.087>
LayerCount: 2
Fore
SplineSet
164 392 m 2
 164 184 l 2
 164 159.914456322 173.915124868 135.977227394 190.946176131 118.946176131 c 0
 207.977227394 101.915124868 231.914456322 92 256 92 c 0
 280.085543678 92 304.022772606 101.915124868 321.053823869 118.946176131 c 0
 338.084875132 135.977227394 348 159.914456322 348 184 c 2
 348 392 l 2
 348 416.085543678 338.084875132 440.022772606 321.053823869 457.053823869 c 0
 304.022772606 474.084875132 280.085543678 484 256 484 c 0
 231.914456322 484 207.977227394 474.084875132 190.946176131 457.053823869 c 0
 173.915124868 440.022772606 164 416.085543678 164 392 c 2
  Spiro
    164 392 v
    164 184 v
    256 92 o
    348 184 v
    348 392 v
    256 484 o
    0 0 z
  EndSpiro
64 392 m 2
 64 442.265482457 84.6924345069 492.221438483 120.235498012 527.764501988 c 0
 155.778561517 563.307565493 205.734517543 584 256 584 c 0
 306.265482457 584 356.221438483 563.307565493 391.764501988 527.764501988 c 0
 427.307565493 492.221438483 448 442.265482457 448 392 c 2
 448 184 l 2
 448 133.734517543 427.307565493 83.7785615174 391.764501988 48.2354980122 c 0
 356.221438483 12.6924345069 306.265482457 -8 256 -8 c 0
 205.734517543 -8 155.778561517 12.6924345069 120.235498012 48.2354980122 c 0
 84.6924345069 83.7785615174 64 133.734517543 64 184 c 2
 64 392 l 2
  Spiro
    64 392 v
    256 584 o
    448 392 v
    448 184 v
    256 -8 o
    64 184 v
    0 0 z
  EndSpiro
EndSplineSet
EndChar
StartChar: r
Encoding: 114 114 8
Width: 512
VWidth: 0
InSpiro: 1
Flags: MW
LayerCount: 2
Fore
SplineSet
64 576 m 1
 164 576 l 1
 164 0 l 1
 64 0 l 1
 64 576 l 1
  Spiro
    64 576 v
    164 576 v
    164 0 v
    64 0 v
    0 0 z
  EndSpiro
164 0 m 1
 64 0 l 1
 64 392 l 2
 64 442.265482457 84.6924345069 492.221438483 120.235498012 527.764501988 c 0
 155.778561517 563.307565493 205.734517543 584 256 584 c 0
 306.265482457 584 356.221438483 563.307565493 391.764501988 527.764501988 c 0
 427.307565493 492.221438483 448 442.265482457 448 392 c 1
 348 392 l 1
 348 416.085543678 338.084875132 440.022772606 321.053823869 457.053823869 c 0
 304.022772606 474.084875132 280.085543678 484 256 484 c 0
 231.914456322 484 207.977227394 474.084875132 190.946176131 457.053823869 c 0
 173.915124868 440.022772606 164 416.085543678 164 392 c 2
 164 0 l 1
  Spiro
    164 0 v
    64 0 v
    64 392 v
    256 584 o
    448 392 v
    348 392 v
    256 484 o
    164 392 v
    0 0 z
  EndSpiro
EndSplineSet
EndChar
StartChar: s
Encoding: 115 115 17
Width: 512
VWidth: 0
InSpiro: 1
Flags: HW
HStem: -4 102.224<134.259 326.593> 478.015 102.985<197.577 397.387>
LayerCount: 2
Fore
SplineSet
54 35 m 1
 85 134 l 1
 125.308532741 123.196651008 165.455574093 111.538723452 206.428022065 103.617317744 c 0
 226.914246056 99.6566148907 247.800410198 96.821014657 268.618913173 98.2218980846 c 0
 279.028164661 98.9223397984 289.404240322 100.730381805 299.242791846 104.201122223 c 0
 309.081343369 107.671862641 318.403374075 112.849167203 326 120 c 0
 333.324674581 126.894840386 338.968449163 135.707993128 341.424133747 145.462955706 c 0
 343.87981833 155.217918284 342.976910365 165.760202079 339 175 c 0
 335.83123913 182.362175008 330.845058907 188.846505667 325.053432188 194.387239035 c 0
 319.26180547 199.927972403 312.701819518 204.603605858 306 209 c 0
 290.3680762 219.254543269 274.243153439 228.744047014 258 238 c 0
 219.116122795 260.157479499 175.745981666 273.955236071 138 298 c 0
 122.154748998 308.093665681 107.611799824 320.419114275 96.0593366537 335.234466478 c 0
 84.5068734839 350.049818681 76.0260504912 367.294377742 71.7057024387 385.577940275 c 0
 63.0650063339 422.145065341 71.9852676295 461.852009885 93 493 c 0
 113.250902336 523.015842917 143.647416195 545.395016372 177.025178219 559.429790103 c 0
 210.402940242 573.464563834 246.793789371 579.599770922 283 580 c 0
 337.196166239 580.599092843 391.333653806 568.698788051 441 547 c 1
 411 451 l 1
 374.865954724 464.255949104 337.363592337 474.404195452 299.043458056 478.003740333 c 0
 279.883390915 479.803512774 260.408060715 479.810615889 241.554583504 475.951373637 c 0
 222.701106293 472.092131385 204.143526979 464.056850723 191 450 c 0
 182.927938392 441.36702308 177.153400098 430.393784052 175.69408526 418.665319988 c 0
 174.234770421 406.936855924 177.332591425 394.7586952 184 385 c 0
 192.40730863 372.694715053 205.640821817 364.605697108 219 358 c 0
 237.720413507 348.743339174 257.008877024 340.68774422 276 332 c 0
 312.942144799 315.100319799 351.252948798 300.04063 384 276 c 0
 401.978294584 262.801574119 417.889041543 246.543024771 429.328532809 227.397383976 c 0
 440.768024075 208.25174318 447.612207651 186.337120463 448.737701572 164.062678039 c 0
 449.863195493 141.788235615 445.297046082 119.305171674 435.986439545 99.0386937414 c 0
 426.675833007 78.7722158088 412.726519958 60.7526625382 396 46 c 0
 373.563325558 26.2110249265 346.292878516 12.2859156012 317.640287548 3.68144435992 c 0
 288.987696581 -4.92302688139 258.914499723 -8.36138730476 229 -8 c 0
 168.453917362 -7.26856254256 108.400653633 8.41180698433 54 35 c 1
  Spiro
    54 35 v
    85 134 v
    326 120 o
    339 175 o
    306 209 o
    258 238 o
    138 298 o
    93 493 o
    283 580 o
    441 547 v
    411 451 v
    191 450 o
    184 385 o
    219 358 o
    276 332 o
    384 276 o
    396 46 o
    229 -8 o
    0 0 z
  EndSpiro
EndSplineSet
EndChar
StartChar: t
Encoding: 116 116 16
Width: 512
VWidth: 0
InSpiro: 1
Flags: MW
LayerCount: 2
Fore
SplineSet
420 104 m 1
 401.935546875 97.08984375 381.684570312 96.0068359375 363 101 c 0
 338.401367188 107.57421875 317.05078125 125.032226562 305.278320312 147.610351562 c 0
 299.392578125 158.899414062 295.788085938 171.295898438 293.94140625 183.892578125 c 0
 292.09375 196.489257812 292 209.268554688 292 222 c 2
 292 768 l 1
 192 768 l 1
 192 246 l 2
 192 218.6015625 192.268554688 191.061523438 196.923828125 164.061523438 c 0
 201.578125 137.061523438 210.625 110.6796875 224.944335938 87.3203125 c 0
 253.58203125 40.6025390625 303.793945312 8.0244140625 358 0 c 0
 386.319335938 -4.1923828125 415.54296875 -2.1015625 443 6 c 1
 420 104 l 1
  Spiro
    420 104 v
    363 101 o
    292 222 [
    292 768 v
    192 768 v
    192 246 ]
    358 0 o
    443 6 v
    0 0 z
  EndSpiro
92 566 m 1
 92 466 l 1
 428 466 l 1
 428 566 l 1
 92 566 l 1
  Spiro
    92 466 v
    428 466 v
    428 566 v
    92 566 v
    0 0 z
  EndSpiro
EndSplineSet
EndChar
StartChar: w
Encoding: 119 119 23
Width: 510
VWidth: 0
InSpiro: 1
Flags: MW
LayerCount: 2
Fore
SplineSet
348 234 m 2
 348 577 l 1
 448 577 l 1
 448 44 l 2
 448 37.193359375 447.88671875 30.3095703125 446.158203125 23.7265625 c 0
 444.4296875 17.1435546875 441.06640625 10.9345703125 436.147460938 6.23046875 c 0
 431.229492188 1.525390625 424.849609375 -1.591796875 418.140625 -2.7421875 c 0
 411.432617188 -3.892578125 404.465820312 -3.1259765625 398 -1 c 0
 387.185546875 2.5556640625 377.875976562 9.7041015625 369.875 17.802734375 c 0
 361.875 25.900390625 354.962890625 34.994140625 348 44 c 2
 198 238 l 2
 189.052734375 249.572265625 181.053710938 262.190429688 177.478515625 276.375 c 0
 173.90234375 290.55859375 174 305.372070312 174 320 c 2
 174 427 l 1
 274 427 l 1
 274 352 l 2
 274 338.561523438 274.530273438 324.935546875 278.608398438 312.130859375 c 0
 282.686523438 299.325195312 290.162109375 287.916992188 298 277 c 2
 326 238 l 2
 326.782226562 236.911132812 327.591796875 235.834960938 328.55078125 234.8984375 c 0
 329.510742188 233.961914062 330.600585938 233.165039062 331.75390625 232.48046875 c 0
 334.059570312 231.11328125 336.517578125 230.013671875 339 229 c 0
 340.008789062 228.587890625 341.045898438 228.221679688 342.125 228.07421875 c 0
 343.205078125 227.92578125 344.3359375 228.018554688 345.322265625 228.482421875 c 0
 346.307617188 228.946289062 347.10546875 229.787109375 347.53125 230.790039062 c 0
 347.95703125 231.79296875 348 232.91015625 348 234 c 2
  Spiro
    348 577 v
    448 577 v
    448 44 ]
    398 -1 o
    348 44 [
    198 238 ]
    174 320 [
    174 427 v
    274 427 v
    274 352 ]
    298 277 [
    326 238 ]
    339 229 o
    348 234 [
    0 0 z
  EndSpiro
52 -1 m 1024
  Spiro
    52 -1 {
    0 0 z
  EndSpiro
100 234 m 2
 100 232.910575314 100.043229758 231.792963526 100.468960808 230.790167824 c 0
 100.894691859 229.787372123 101.692450485 228.946389435 102.678112271 228.482366817 c 0
 103.663774058 228.018344199 104.795391856 227.925920105 105.874717003 228.073917987 c 0
 106.954042151 228.221915869 107.991423374 228.588151319 109 229 c 0
 111.482353774 230.013660341 113.940430738 231.112858608 116.246545541 232.480857901 c 0
 117.399602942 233.164857547 118.489564724 233.961559365 119.448817172 234.898165807 c 0
 120.40806962 235.83477225 121.21811198 236.910941686 122 238 c 2
 150 277 l 2
 157.837643746 287.916718075 165.313778355 299.325200897 169.391774073 312.130408586 c 0
 173.469769792 324.935616274 174 338.561123818 174 352 c 2
 174 427 l 1
 274 427 l 1
 274 320 l 2
 274 305.371975092 274.097802617 290.558902472 270.521896556 276.374685589 c 0
 266.945990495 262.190468707 258.947664296 249.57231249 250 238 c 2
 100 44 l 2
 93.0367419682 34.9941862788 86.1250963096 25.9007499705 78.12471159 17.8022632268 c 0
 70.1243268705 9.70377648315 60.8141385177 2.55612869824 50 -1 c 0
 43.5343393834 -3.12617225443 36.5672734569 -3.89217135704 29.8588949209 -2.74193960537 c 0
 23.1505163849 -1.59170785371 16.7707105612 1.52535533751 11.8522011889 6.22999572963 c 0
 6.93369181668 10.9346361216 3.57049030118 17.1430696117 1.84211476095 23.7262370602 c 0
 0.113739220726 30.3094045086 1.52878594677e-11 37.1937252728 0 44 c 2
 0 577 l 1
 100 577 l 1
 100 234 l 2
  Spiro
    100 234 ]
    109 229 o
    122 238 [
    150 277 ]
    174 352 [
    174 427 v
    274 427 v
    274 320 ]
    250 238 [
    100 44 ]
    50 -1 o
    0 44 [
    0 577 v
    100 577 v
    0 0 z
  EndSpiro
EndSplineSet
EndChar
StartChar: x
Encoding: 120 120 24
Width: 512
VWidth: 0
InSpiro: 1
Flags: MW
LayerCount: 2
Fore
SplineSet
342 0 m 1
 340.73046875 10.060546875 339.061523438 20.0712890625 337 30 c 0
 319.310546875 115.213867188 270.370117188 190.252929688 218.342773438 260.018554688 c 0
 166.314453125 329.78515625 112.704101562 400.8515625 87 484 c 0
 77.767578125 513.864257812 72 544.805664062 70 576 c 1
 170 576 l 1
 171.26953125 565.939453125 172.938476562 555.928710938 175 546 c 0
 192.689453125 460.786132812 241.629882812 385.747070312 293.657226562 315.981445312 c 0
 345.685546875 246.21484375 399.295898438 175.1484375 425 92 c 0
 434.232421875 62.1357421875 440 31.1943359375 442 0 c 1
 342 0 l 1
  Spiro
    337 30 o
    87 484 o
    70 576 v
    170 576 v
    175 546 o
    425 92 o
    442 0 v
    342 0 v
    0 0 z
  EndSpiro
170 0 m 1
 70 0 l 1
 72 31.1943359375 77.767578125 62.1357421875 87 92 c 0
 112.704101562 175.1484375 166.314453125 246.21484375 218.342773438 315.981445312 c 0
 270.370117188 385.747070312 319.310546875 460.786132812 337 546 c 0
 339.061523438 555.928710938 340.73046875 565.939453125 342 576 c 1
 442 576 l 1
 440 544.805664062 434.232421875 513.864257812 425 484 c 0
 399.295898438 400.8515625 345.685546875 329.78515625 293.657226562 260.018554688 c 0
 241.629882812 190.252929688 192.689453125 115.213867188 175 30 c 0
 172.938476562 20.0712890625 171.26953125 10.060546875 170 0 c 1
  Spiro
    170 0 v
    70 0 v
    87 92 o
    337 546 o
    342 576 v
    442 576 v
    425 484 o
    175 30 o
    0 0 z
  EndSpiro
EndSplineSet
EndChar
StartChar: y
Encoding: 121 121 7
Width: 512
VWidth: 0
InSpiro: 1
Flags: HW
HStem: -128 100<108.652 312.507> -24 20G<94.9167 122.138> 56 100<195.431 316.569> 557 20G<64 164 348 448>
VStem: 64 100<187.431 577> 348 100<6.76805 109 202.896 577>
LayerCount: 2
Fore
SplineSet
102 -4 m 1
 142.276987454 -15.3546780706 183.216549194 -25.6961616359 225 -28 c 0
 241.392163626 -28.9038242343 257.988018838 -28.229518192 273.934142253 -24.3255363032 c 0
 289.880265669 -20.4215544145 305.128103194 -13.0970867139 317.323635748 -2.10668579771 c 0
 329.519168301 8.88371511734 338.343664778 23.4425158721 342.975957748 39.1924932807 c 0
 347.608250719 54.9424706892 348 71.5829379445 348 88 c 2
 348 577 l 1
 448 577 l 1
 448 109 l 2
 448 77.9267811531 447.357425572 46.5067042233 439.426263847 16.4627097617 c 0
 431.495102123 -13.5812846998 416.351523527 -41.8205846544 394.86228929 -64.2651327996 c 0
 373.373055053 -86.7096809434 346.0034605 -103.17013177 316.646854388 -113.355150527 c 0
 287.290248276 -123.540169284 256.072069214 -127.732709448 225 -128 c 0
 171.573428597 -128.459590179 118.282262479 -118.063882058 68 -100 c 1
 102 -4 l 1
  Spiro
    102 -4 v
    225 -28 o
    348 88 [
    348 577 v
    448 577 v
    448 109 ]
    225 -128 o
    68 -100 v
    0 0 z
  EndSpiro
64 580 m 1024
  Spiro
    64 580 {
    0 0 z
  EndSpiro
164 268 m 2
 164 254.280047871 164.207185074 240.451546052 167.130902703 227.046734914 c 0
 170.054620333 213.641923776 175.680915573 200.759771489 184.103903269 189.929703867 c 0
 192.526890965 179.099636246 203.632856911 170.404184676 216.085366739 164.644663392 c 0
 228.537876566 158.885142109 242.280047871 156 256 156 c 0
 269.719952129 156 283.462123434 158.885142109 295.914633262 164.644663393 c 0
 308.367143089 170.404184677 319.473109035 179.099636247 327.896096731 189.929703869 c 0
 336.319084427 200.759771491 341.945379667 213.641923777 344.869097296 227.046734915 c 0
 347.792814926 240.451546053 348 254.280047871 348 268 c 2
 348 577 l 1
 448 577 l 1
 448 288 l 2
 448 259.485078258 447.557663652 230.739386976 441.405668832 202.896008558 c 0
 435.253674013 175.052630141 423.425855055 148.328096054 405.79007263 125.920955669 c 0
 388.154290206 103.513815285 364.957737334 85.5933698417 339.018930028 73.7494246583 c 0
 313.080122722 61.905479475 284.514921742 55.9999999995 256 56 c 0
 227.485078258 56 198.919877277 61.905479476 172.981069972 73.74942466 c 0
 147.042262666 85.5933698439 123.845709794 103.513815287 106.20992737 125.920955672 c 0
 88.5741449455 148.328096057 76.7463259872 175.052630143 70.594331168 202.89600856 c 0
 64.4423363487 230.739386977 64.0000000001 259.485078258 64 288 c 2
 64 577 l 1
 164 577 l 1
 164 268 l 2
  Spiro
    164 268 ]
    256 156 o
    348 268 [
    348 577 v
    448 577 v
    448 288 ]
    256 56 o
    64 288 [
    64 577 v
    164 577 v
    0 0 z
  EndSpiro
EndSplineSet
EndChar
StartChar: z
Encoding: 122 122 25
Width: 512
VWidth: 0
InSpiro: 1
Flags: HW
HStem: 0 100<208 448> 476 100<90 345 357 384>
LayerCount: 2
Fore
SplineSet
208 100 m 1
 90 100 l 1
 91.7875603786 108.051119181 93.7889620775 116.054737042 96 124 c 0
 109.083257515 171.014083409 129.610816573 215.73105871 154 258 c 0
 176.029967461 296.180179506 201.620301233 332.271106284 230 366 c 0
 251.274318152 391.284243562 274.037530517 415.309901848 294.690921294 441.103835917 c 0
 315.344312071 466.897769986 333.63631414 494.971686656 345 526 c 0
 350.907753845 542.131001834 354.968445142 558.941759747 357 576 c 1
 448 576 l 1
 447.744804013 555.058081913 444.6741667 534.160180813 439 514 c 0
 424.993866837 464.236538337 394.674196661 420.85730227 363 380 c 0
 324.987767248 330.967113701 285.58558475 282.532989581 256 228 c 0
 234.196647408 187.811441626 217.736095617 144.673424433 208 100 c 1
  Spiro
    208 100 v
    90 100 v
    96 124 o
    154 258 o
    230 366 o
    345 526 o
    357 576 v
    448 576 v
    439 514 o
    363 380 c
    256 228 o
    0 0 z
  EndSpiro
90 576 m 1
 384 576 l 1
 384 476 l 1
 90 476 l 1
 90 576 l 1
  Spiro
    90 576 v
    384 576 v
    384 476 v
    90 476 v
    0 0 z
  EndSpiro
90 100 m 1
 448 100 l 1
 448 0 l 1
 90 0 l 1
 90 100 l 1
  Spiro
    90 100 v
    448 100 v
    448 0 v
    90 0 v
    0 0 z
  EndSpiro
EndSplineSet
EndChar
StartChar: sterling
Encoding: 163 163 168
Width: 512
VWidth: 0
InSpiro: 1
Flags: HMW
LayerCount: 2
Fore
SplineSet
424 402 m 1
 424 302 l 1
 24 302 l 1
 24 402 l 1
 424 402 l 1
  Spiro
    424 402 v
    424 302 v
    24 302 v
    24 402 v
    0 0 z
  EndSpiro
488 100 m 1
 488 0 l 1
 116 0 l 1
 116 100 l 1
 488 100 l 1
  Spiro
    488 100 v
    488 0 v
    116 0 v
    116 100 v
    0 0 z
  EndSpiro
24 0 m 1
 24 50 l 1
 84 110 l 2
 94.307323574 120.307323574 104.395576121 131.033722031 111.772616938 143.605957604 c 0
 119.149657755 156.178193177 123.781514502 170.260510069 126.074433622 184.655799591 c 0
 130.660271855 213.446378634 128.000000005 242.846486422 128 272 c 2
 128 549 l 2
 128 567.369174801 128.333098748 585.835462806 131.665477665 603.899843051 c 0
 134.997856582 621.964223296 141.212548805 639.475675874 149.86749528 655.67809805 c 0
 167.177388232 688.082942402 193.022063866 715.022063868 219 741 c 0
 244.977936133 766.977936133 271.9170576 792.822611768 304.321901953 810.132504719 c 0
 320.524324129 818.787451194 338.035776706 825.002143418 356.10015695 828.334522335 c 0
 374.164537195 831.666901251 392.630825199 832 411 832 c 2
 448 832 l 1
 448 732 l 1
 422 732 l 2
 409.395142761 732 396.7254667 731.776434657 384.323670339 729.523021014 c 0
 371.921873978 727.269607371 359.887780259 723.064197321 348.735943503 717.188913243 c 0
 326.432269992 705.438345087 307.825960059 687.82596006 290 670 c 0
 272.17403994 652.17403994 254.561654913 633.567730007 242.811086757 611.264056495 c 0
 236.935802679 600.112219739 232.730392629 588.07812602 230.476978986 575.67632966 c 0
 228.223565343 563.274533299 228 550.604857239 228 538 c 2
 228 308 l 2
 228 271.702207895 230.66463411 235.416216556 229.697610169 199.131308173 c 0
 229.214098199 180.988853981 227.30546735 162.803306115 222.547830983 145.289102618 c 0
 217.790194615 127.774899122 210.088497268 111.086571871 200 96 c 0
 190.642772783 82.0069862569 179.345047283 69.4359172138 168 57 c 2
 116 0 l 1
 24 0 l 1
  Spiro
    24 0 v
    24 50 v
    84 110 ]
    128 272 [
    128 549 ]
    219 741 o
    411 832 [
    448 832 v
    448 732 v
    422 732 ]
    290 670 o
    228 538 [
    228 308 ]
    200 96 o
    168 57 [
    116 0 v
    0 0 z
  EndSpiro
EndSplineSet
EndChar
StartChar: currency
Encoding: 164 164 196
Width: 512
VWidth: 0
InSpiro: 1
Flags: HMW
LayerCount: 2
Fore
SplineSet
508 139 m 1
 437 68 l 1
 356 149 l 1
 427 220 l 1
 508 139 l 1
  Spiro
    508 139 v
    437 68 v
    356 149 v
    427 220 v
    0 0 z
  EndSpiro
4 501 m 1
 75 572 l 1
 156 491 l 1
 85 420 l 1
 4 501 l 1
  Spiro
    4 501 v
    75 572 v
    156 491 v
    85 420 v
    0 0 z
  EndSpiro
437 572 m 1
 508 501 l 1
 427 420 l 1
 356 491 l 1
 437 572 l 1
  Spiro
    437 572 v
    508 501 v
    427 420 v
    356 491 v
    0 0 z
  EndSpiro
75 68 m 1
 4 139 l 1
 85 220 l 1
 156 149 l 1
 75 68 l 1
  Spiro
    75 68 v
    4 139 v
    85 220 v
    156 149 v
    0 0 z
  EndSpiro
414 162 m 0
 372.635742188 120.635742188 314.498046875 96.5546875 256 96.5546875 c 0
 197.501953125 96.5546875 139.364257812 120.635742188 98 162 c 0
 56.6357421875 203.364257812 32.5546875 261.501953125 32.5546875 320 c 0
 32.5546875 378.498046875 56.6357421875 436.635742188 98 478 c 0
 139.364257812 519.364257812 197.501953125 543.4453125 256 543.4453125 c 0
 314.498046875 543.4453125 372.635742188 519.364257812 414 478 c 0
 455.364257812 436.635742188 479.4453125 378.498046875 479.4453125 320 c 0
 479.4453125 261.501953125 455.364257812 203.364257812 414 162 c 0
  Spiro
    414 162 o
    98 162 o
    98 478 o
    414 478 o
    0 0 z
  EndSpiro
344 408 m 0
 320.961914062 431.038085938 288.581054688 444.451171875 256 444.451171875 c 0
 223.418945312 444.451171875 191.038085938 431.038085938 168 408 c 0
 144.961914062 384.961914062 131.548828125 352.581054688 131.548828125 320 c 0
 131.548828125 287.418945312 144.961914062 255.038085938 168 232 c 0
 191.038085938 208.961914062 223.418945312 195.548828125 256 195.548828125 c 0
 288.581054688 195.548828125 320.961914062 208.961914062 344 232 c 0
 367.038085938 255.038085938 380.451171875 287.418945312 380.451171875 320 c 0
 380.451171875 352.581054688 367.038085938 384.961914062 344 408 c 0
  Spiro
    344 408 o
    168 408 o
    168 232 o
    344 232 o
    0 0 z
  EndSpiro
EndSplineSet
EndChar
StartChar: copyright
Encoding: 169 169 202
Width: 512
VWidth: 0
InSpiro: 1
Flags: HMW
LayerCount: 2
Fore
SplineSet
134 455 m 2
 134 470.759765625 134.272460938 486.6640625 137.913085938 501.998046875 c 0
 141.552734375 517.331054688 148.5390625 531.938476562 158.759765625 543.93359375 c 0
 168.981445312 555.9296875 182.260742188 565.2109375 196.844726562 571.18359375 c 0
 211.428710938 577.15625 227.241210938 579.920898438 243 580 c 0
 260.353515625 580.086914062 277.702148438 576.959960938 294 571 c 1
 284 524 l 1
 270.772460938 528.196289062 256.869140625 530.4453125 243 530 c 0
 234.7265625 529.734375 226.439453125 528.446289062 218.666015625 525.599609375 c 0
 210.893554688 522.752929688 203.66796875 518.2734375 198.000976562 512.240234375 c 0
 192.333984375 506.206054688 188.34765625 498.666015625 186.258789062 490.655273438 c 0
 184.169921875 482.645507812 184 474.27734375 184 466 c 2
 184 367 l 2
 184 358.633789062 184.178710938 350.16796875 186.381835938 342.09765625 c 0
 188.584960938 334.026367188 192.794921875 326.475585938 198.731445312 320.581054688 c 0
 204.66796875 314.686523438 212.194335938 310.501953125 220.1953125 308.055664062 c 0
 228.1953125 305.609375 236.635742188 304.8203125 245 305 c 0
 266.284179688 305.458007812 287.190429688 311.202148438 307 319 c 1
 324 271 l 1
 299.05859375 260.522460938 272.05078125 254.6484375 245 255 c 0
 229.293945312 255.204101562 213.53125 257.620117188 198.819335938 263.124023438 c 0
 184.107421875 268.62890625 170.51953125 277.346679688 159.938476562 288.955078125 c 0
 149.357421875 300.564453125 141.995117188 314.963867188 138.1484375 330.193359375 c 0
 134.301757812 345.422851562 134 361.291992188 134 377 c 2
 134 455 l 2
  Spiro
    134 455 ]
    243 580 o
    294 571 v
    284 524 v
    243 530 o
    184 466 [
    184 367 ]
    245 305 o
    307 319 v
    324 271 v
    245 255 o
    134 377 [
    0 0 z
  EndSpiro
256 718 m 0
 234.860842808 721.516220801 213.139157192 721.516220801 192 718 c 0
 169.729855646 714.295654358 148.064173887 706.626893003 128.749510566 694.938211 c 0
 109.434847245 683.249528996 92.5713970475 667.470116081 79.9066699048 648.78091619 c 0
 67.2419427621 630.091716299 58.9253096695 608.61593981 54.6094220601 586.456187548 c 0
 50.2935344506 564.296435286 50 541.576126908 50 519 c 2
 50 313 l 2
 50 290.423873092 50.2935344506 267.703564713 54.60942206 245.543812451 c 0
 58.9253096694 223.384060189 67.2419427621 201.9082837 79.9066699048 183.219083809 c 0
 92.5713970476 164.529883918 109.434847245 148.750471003 128.749510566 137.061789 c 0
 148.064173887 125.373106997 169.729855646 117.704345642 192 114 c 0
 213.139157192 110.483779199 234.860842808 110.483779199 256 114 c 0
 278.270144354 117.704345642 299.935826113 125.373106997 319.250489434 137.061789 c 0
 338.565152755 148.750471004 355.428602952 164.529883919 368.093330095 183.21908381 c 0
 380.758057238 201.908283701 389.074690331 223.38406019 393.39057794 245.543812452 c 0
 397.706465549 267.703564714 398 290.423873092 398 313 c 2
 398 519 l 2
 398 541.576126908 397.706465549 564.296435287 393.39057794 586.456187549 c 0
 389.074690331 608.615939811 380.758057238 630.0917163 368.093330095 648.780916191 c 0
 355.428602952 667.470116082 338.565152755 683.249528997 319.250489434 694.938211 c 0
 299.935826113 706.626893003 278.270144354 714.295654358 256 718 c 0
  Spiro
    256 718 o
    192 718 o
    50 519 [
    50 313 ]
    192 114 o
    256 114 o
    398 313 [
    398 519 ]
    0 0 z
  EndSpiro
192 768 m 0
 213.240286784 770.434659733 234.759713216 770.434659733 256 768 c 0
 284.570943273 764.725066576 312.733372212 756.989849849 338.437261445 744.092793336 c 0
 364.141150679 731.195736823 387.267137518 712.963024867 405.023604579 690.341533626 c 0
 422.780071639 667.720042386 434.876872514 640.864921358 441.196969397 612.809968786 c 0
 447.51706628 584.755016215 448 555.758024765 448 527 c 2
 448 310 l 2
 448 280.918597756 447.537186197 251.608180939 441.326408281 223.1977217 c 0
 435.115630364 194.787262461 423.20898577 167.51245587 405.586945901 144.378245977 c 0
 387.964906032 121.244036085 364.897020181 102.410084727 339.094324681 88.9955828203 c 0
 313.291629181 75.5810809133 284.878445772 67.4297705868 256 64 c 0
 234.766446871 61.4781809048 213.233553129 61.4781809048 192 64 c 0
 163.121554228 67.4297705874 134.708370819 75.5810809144 108.905675319 88.9955828221 c 0
 83.1029798185 102.41008473 60.0350939676 121.244036088 42.4130540987 144.37824598 c 0
 24.79101423 167.512455873 12.8843696365 194.787262463 6.67359171973 223.197721702 c 0
 0.46281380299 251.60818094 1.57409490517e-10 280.918597756 0 310 c 2
 0 527 l 2
 -4.6246430986e-15 555.758024766 0.482933719972 584.755016216 6.80303060251 612.809968788 c 0
 13.123127485 640.864921361 25.2199283602 667.720042389 42.9763954212 690.34153363 c 0
 60.7328624825 712.96302487 83.8588493215 731.195736826 109.562738555 744.092793338 c 0
 135.266627789 756.989849851 163.429056727 764.725066576 192 768 c 0
  Spiro
    192 768 o
    256 768 o
    448 527 [
    448 310 ]
    256 64 o
    192 64 o
    0 310 [
    0 527 ]
    0 0 z
  EndSpiro
EndSplineSet
EndChar
StartChar: guillemotleft
Encoding: 171 171 194
Width: 512
VWidth: 0
InSpiro: 1
Flags: W
LayerCount: 2
Fore
SplineSet
415 92 m 1
 480 153 l 1
 341 288 l 1
 480 422 l 1
 415 484 l 1
 219 288 l 1
 415 92 l 1
  Spiro
    415 92 v
    480 153 v
    341 288 v
    480 422 v
    415 484 v
    219 288 v
    0 0 z
  EndSpiro
247 53 m 1
 310 117 l 1
 138 288 l 1
 310 459 l 1
 246 523 l 1
 12 288 l 1
 247 53 l 1
  Spiro
    247 53 v
    310 117 v
    138 288 v
    310 459 v
    246 523 v
    12 288 v
    0 0 z
  EndSpiro
EndSplineSet
EndChar
StartChar: paragraph
Encoding: 182 182 198
Width: 512
VWidth: 0
InSpiro: 1
Flags: HMW
LayerCount: 2
Fore
SplineSet
332 0 m 1
 332 760 l 1
 232 760 l 1
 232 0 l 1
 332 0 l 1
  Spiro
    332 0 v
    332 760 v
    232 760 v
    232 0 v
    0 0 z
  EndSpiro
466 0 m 1
 466 760 l 1
 366 760 l 1
 366 0 l 1
 466 0 l 1
  Spiro
    466 0 v
    466 760 v
    366 760 v
    366 0 v
    0 0 z
  EndSpiro
274 370 m 2
 250.299511654 370 226.259689916 370.657719307 203.598062947 377.597734504 c 0
 180.936435979 384.537749702 160.143279261 397.591060908 144.335568061 415.249753228 c 0
 128.527856864 432.908445549 117.732806824 454.718571352 111.440441642 477.568501072 c 0
 105.14807646 500.418430792 103.037038975 524.319082495 104 548 c 0
 104.905425389 570.266014367 108.560942104 592.509880009 115.988749825 613.519945773 c 0
 123.416557546 634.530011536 134.876807661 654.280966852 150.603880821 670.068758362 c 0
 166.330953979 685.856549871 186.269732878 697.309394571 207.711948769 703.377884377 c 0
 229.15416466 709.446374184 251.715584126 709.999999999 274 710 c 2
 323 710 l 1
 323 760 l 1
 207 760 l 2
 178.93661368 760 150.450324918 759.171743875 123.691297166 750.715498522 c 0
 96.9322694135 742.259253168 72.5418623076 726.411824501 54.1146393619 705.246024109 c 0
 35.68741642 684.080223714 23.2226757125 658.16842269 15.5651607725 631.16997613 c 0
 7.90764583241 604.17152957 4.65454825056 576.055751965 4 548 c 0
 3.3103880823 518.441322298 5.45850606664 488.695717614 12.2485180988 459.919221498 c 0
 19.0385301309 431.142725382 30.9378069364 403.256139927 49.4881210665 380.232742311 c 0
 68.0384351902 357.209344697 93.2941712004 339.703483345 121.334658012 330.3268053 c 0
 149.375144823 320.950127254 179.433278982 320.000000004 209 320 c 2
 323 320 l 1
 323 370 l 1
 274 370 l 2
  Spiro
    274 370 ]
    104 548 o
    274 710 [
    323 710 v
    323 760 v
    207 760 ]
    4 548 o
    209 320 [
    323 320 v
    323 370 v
    0 0 z
  EndSpiro
EndSplineSet
EndChar
StartChar: uni00B9
Encoding: 185 185 208
Width: 512
VWidth: 0
InSpiro: 1
Flags: MW
LayerCount: 2
Fore
SplineSet
72 384 m 1
 248 384 l 1
 248 434 l 1
 72 434 l 1
 72 384 l 1
  Spiro
    72 384 v
    248 384 v
    248 434 v
    72 434 v
    0 0 z
  EndSpiro
131 769 m 1
 131 384 l 1
 189 384 l 1
 189 769 l 1
 131 769 l 1
  Spiro
    131 769 v
    131 384 v
    189 384 v
    189 769 v
    0 0 z
  EndSpiro
189 769 m 1
 131 769 l 1
 113 752.5 l 2
 106.708794453 746.733061582 100.257418676 741.053986935 92.9135970664 736.705983931 c 0
 85.5697754568 732.357980928 77.4302944176 729.329278747 69 728 c 1
 69 677 l 1
 83.5549376904 677.370900009 97.9974500059 681.055506931 111.020870595 687.565060997 c 0
 124.044291185 694.074615063 135.53274317 703.386915186 145.5 714 c 0
 155.483303239 724.63017095 164.162009684 736.40013771 173 748 c 2
 189 769 l 1
  Spiro
    189 769 v
    131 769 v
    113 752.5 ]
    69 728 v
    69 677 v
    145.5 714 o
    173 748 [
    0 0 z
  EndSpiro
EndSplineSet
EndChar
StartChar: onequarter
Encoding: 188 188 209
Width: 512
VWidth: 0
InSpiro: 1
Flags: HMW
LayerCount: 2
Fore
SplineSet
131 833 m 1
 131 448 l 1
 189 448 l 1
 189 833 l 1
 131 833 l 1
  Spiro
    131 833 v
    131 448 v
    189 448 v
    189 833 v
    0 0 z
  EndSpiro
189 833 m 1
 131 833 l 1
 113 816.5 l 2
 106.708984375 810.733398438 100.2578125 805.053710938 92.9140625 800.706054688 c 0
 85.5693359375 796.358398438 77.4306640625 793.329101562 69 792 c 1
 69 741 l 1
 83.5546875 741.37109375 97.9970703125 745.055664062 111.020507812 751.565429688 c 0
 124.043945312 758.07421875 135.533203125 767.38671875 145.5 778 c 0
 155.483398438 788.629882812 164.162109375 800.400390625 173 812 c 2
 189 833 l 1
  Spiro
    189 833 v
    131 833 v
    113 816.5 ]
    69 792 v
    69 741 v
    145.5 778 o
    173 812 [
    0 0 z
  EndSpiro
26 223 m 1
 416 612 l 1
 486 612 l 1
 98 223 l 1
 26 223 l 1
  Spiro
    26 223 v
    416 612 v
    486 612 v
    98 223 v
    0 0 z
  EndSpiro
448 374 m 1
 398 374 l 1
 398 -37 l 1
 448 -37 l 1
 448 374 l 1
  Spiro
    448 374 v
    398 374 v
    398 -37 v
    448 -37 v
    0 0 z
  EndSpiro
480 77 m 1
 210 77 l 1
 210 27 l 1
 480 27 l 1
 480 77 l 1
  Spiro
    480 77 v
    210 77 v
    210 27 v
    480 27 v
    0 0 z
  EndSpiro
155 27 m 1
 213 27 l 1
 213 59 l 2
 211.697246366 67.7434647678 213.269287959 76.8439002105 217.167896909 84.7777637981 c 0
 221.06650586 92.7116273857 227.230989022 99.2674367604 233.5 105.5 c 2
 405.5 276.5 l 2
 418.633553103 289.557195236 431.547256125 303.302608801 439.652789775 319.954362126 c 0
 447.758323426 336.60611545 450.921969033 355.712226447 448 374 c 1
 398 374 l 1
 399.759394387 365.747863663 398.593529636 356.954194768 395.012852564 349.314039375 c 0
 391.432175491 341.673883982 385.51621405 335.415943816 379.5 329.5 c 2
 199.5 152.5 l 2
 186.724333812 139.937261582 174.152110422 126.776849928 165.826509027 110.911024879 c 0
 157.500907632 95.0451998292 153.513737977 76.8558412932 155 59 c 2
 155 27 l 1
  Spiro
    155 27 v
    213 27 v
    213 59 v
    233.5 105.5 [
    405.5 276.5 ]
    448 374 v
    398 374 v
    379.5 329.5 [
    199.5 152.5 ]
    155 59 v
    0 0 z
  EndSpiro
EndSplineSet
EndChar
StartChar: onehalf
Encoding: 189 189 210
Width: 512
VWidth: 0
InSpiro: 1
Flags: HMW
LayerCount: 2
Fore
SplineSet
484 -4 m 1
 484 -53 l 1
 214 -53 l 1
 214 12 l 1
 218.801090418 25.0127606122 225.592701745 37.2694752357 233.898006538 48.3782249518 c 0
 242.20331133 59.486974668 252.048081174 69.3386481469 262 79 c 2
 399 212 l 2
 403.430913125 216.301543399 407.825186575 220.802740571 410.619082126 226.310046118 c 0
 413.412977677 231.817351665 414.499231773 238.219939233 413.381568889 244.293414055 c 0
 412.263906004 250.366888877 409.026896324 255.957675051 404.62864104 260.292604946 c 0
 400.230385756 264.62753484 394.756716147 267.764717929 389 270 c 0
 377.209279858 274.578232567 364.332844394 275.881293045 351.692435678 275.432558841 c 0
 339.052026961 274.983824637 326.326650584 272.487908302 315.067458914 266.724931828 c 0
 303.808267246 260.961955365 294.315601359 251.610617018 289.010234172 240.128701945 c 0
 283.704866986 228.646786872 283.00000001 215.648371229 283 203 c 2
 283 194 l 1
 219 194 l 1
 219 203 l 2
 219 214.331915814 219.087020714 225.704907689 220.69783088 236.921752461 c 0
 222.308641045 248.138597233 225.444678645 259.17793321 230.494955921 269.322242722 c 0
 240.595510472 289.610861745 258.517055065 305.529791699 279.224758006 314.7406713 c 0
 299.932460978 323.951550875 322.868537533 327.149748585 345.526580253 327.661964337 c 0
 368.184622974 328.174180088 391.03912988 326.600843553 413 321 c 0
 424.633867618 318.032928493 435.994938071 313.636951475 446 307 c 0
 458.644917017 298.611875944 468.838555688 286.68272642 475.55368442 273.075316759 c 0
 482.268813152 259.467907099 486.136395493 244.02299457 484 229 c 0
 483.239848523 223.654664109 481.597742676 218.417868805 478.975071912 213.698542146 c 0
 476.352401147 208.979215486 472.725052358 204.908251654 469 201 c 2
 286 9 l 2
 284.298105928 7.21440621923 282.625980223 5.3542419003 281.510456047 3.15415226642 c 0
 280.394931872 0.954062632537 279.843541695 -1.53823043687 280 -4 c 2
 484 -4 l 1
  Spiro
    484 -4 v
    484 -53 v
    214 -53 v
    214 12 v
    262 79 [
    399 212 ]
    389 270 o
    283 203 [
    283 194 v
    219 194 v
    219 203 ]
    413 321 o
    446 307 o
    484 229 o
    469 201 [
    286 9 ]
    280 -4 v
    0 0 z
  EndSpiro
131 833 m 1
 131 448 l 1
 189 448 l 1
 189 833 l 1
 131 833 l 1
  Spiro
    131 833 v
    131 448 v
    189 448 v
    189 833 v
    0 0 z
  EndSpiro
189 833 m 1
 131 833 l 1
 113 816.5 l 2
 106.708984375 810.733398438 100.2578125 805.053710938 92.9140625 800.706054688 c 0
 85.5693359375 796.358398438 77.4306640625 793.329101562 69 792 c 1
 69 741 l 1
 83.5546875 741.37109375 97.9970703125 745.055664062 111.020507812 751.565429688 c 0
 124.043945312 758.07421875 135.533203125 767.38671875 145.5 778 c 0
 155.483398438 788.629882812 164.162109375 800.400390625 173 812 c 2
 189 833 l 1
  Spiro
    189 833 v
    131 833 v
    113 816.5 ]
    69 792 v
    69 741 v
    145.5 778 o
    173 812 [
    0 0 z
  EndSpiro
26 223 m 1
 416 612 l 1
 486 612 l 1
 98 223 l 1
 26 223 l 1
  Spiro
    26 223 v
    416 612 v
    486 612 v
    98 223 v
    0 0 z
  EndSpiro
EndSplineSet
EndChar
StartChar: Oslash
Encoding: 216 216 205
Width: 512
VWidth: 0
InSpiro: 1
Flags: MW
LayerCount: 2
Fore
SplineSet
60 -64 m 1
 10 -64 l 1
 14.9896159855 -1.50835369059 30.5268646685 60.0282345899 54.7560074058 117.847355721 c 0
 78.9851501431 175.666476852 112.131181478 229.245803408 146 282 c 2
 363 620 l 2
 383.892400788 652.542080489 404.383605928 685.515517448 420.053379692 720.869974075 c 0
 435.723153456 756.224430703 446.710185426 793.692072948 452 832 c 1
 502 832 l 1
 483.900343225 701.637978823 422.754493514 581.607189622 353 470 c 2
 143 134 l 2
 104.769113734 72.8305819743 71.0773274113 7.27826585791 60 -64 c 1
  Spiro
    60 -64 v
    10 -64 v
    146 282 [
    363 620 ]
    452 832 v
    502 832 v
    353 470 [
    143 134 ]
    0 0 z
  EndSpiro
EndSplineSet
Refer: 34 79 N 1 0 0 1 0 0 2
EndChar
StartChar: eth
Encoding: 240 240 206
Width: 512
VWidth: 0
InSpiro: 1
Flags: HMW
LayerCount: 2
Fore
SplineSet
84 550 m 1
 84 487 l 1
 448 698 l 1
 448 769 l 1
 84 550 l 1
  Spiro
    84 550 v
    84 487 v
    448 698 v
    448 769 v
    0 0 z
  EndSpiro
368 379 m 1
 381 458 l 1
 355.311228398 478.099224834 324.744529137 491.931330889 292.678216448 497.901541592 c 0
 260.611903759 503.871752295 227.052129172 501.982840238 196 492 c 0
 167.986092958 482.993907152 142.080067529 467.31585917 121.479890715 446.303448281 c 0
 100.8797139 425.291037392 85.8814849346 399.053661464 77 371 c 0
 64.7028826044 332.157489887 63.3148398969 290.736841357 64 250 c 0
 64.7154682507 207.461159084 67.4459945015 164.328077269 81 124 c 0
 94.9287454791 82.556935512 122.291848966 45.1659737663 159.678522273 22.499385936 c 0
 197.065195579 -0.167201894299 242.980532992 -7.80147441928 286 0 c 0
 339.222003308 9.65167925645 387.567903788 42.9853017662 416 89 c 0
 430.717852216 112.819472308 440.189675958 139.697933161 445.05868411 167.27102139 c 0
 449.927692262 194.844109619 450.137251715 223.000650064 450 251 c 2
 449 455 l 2
 448.906912225 473.989906168 448.333616289 493.058360278 444.93585299 511.742053868 c 0
 441.53808969 530.425747458 435.618089837 548.604888364 428 566 c 0
 406.422040873 615.271013589 373.217452774 659.976682309 330 692 c 0
 298.840775105 715.088398176 262.555783527 730.578141023 225.14875002 740.809723038 c 0
 187.741716512 751.041305053 149.286267468 756.82479557 111 763 c 2
 80 768 l 1
 80 668 l 1
 109 662 l 2
 139.885877091 655.609818533 170.904249462 649.511415619 201.024104347 640.153736174 c 0
 231.143959231 630.796056729 260.492409908 617.677346191 285.005887826 597.831408993 c 0
 309.519365742 577.985471804 328.480778887 551.299252573 338.698381274 521.460143607 c 0
 348.915983661 491.62103464 349.999999995 459.540003526 350 428 c 2
 350 267 l 2
 350 246.879956838 350.163269375 226.723313089 348.392001523 206.681388355 c 0
 346.620733671 186.639463622 342.727522711 166.534772886 334.033871616 148.389895717 c 0
 325.34022052 130.245018549 311.479108604 114.215390134 293.555998465 105.073275512 c 0
 275.632888326 95.931160889 253.969088721 94.2925556356 235 101 c 0
 221.780706281 105.674324553 210.02694329 114.13740884 200.828700448 124.720006114 c 0
 191.630457605 135.302603388 184.931732894 147.904148712 180.229783754 161.113641918 c 0
 170.825885474 187.532628328 168.599942447 215.963662598 168 244 c 0
 167.571965201 264.002798786 168.17990526 284.119974321 171.746384397 303.806909065 c 0
 175.312863535 323.493843809 182.240290587 342.813449794 194 359 c 0
 205.579534326 374.938549767 221.747380972 387.460242691 240.008193299 394.853869478 c 0
 258.269005625 402.247496265 278.369999313 404.669148553 298 403 c 0
 322.816863835 400.889809938 347.011734401 392.409785227 368 379 c 1
  Spiro
    368 379 v
    381 458 v
    196 492 o
    77 371 o
    64 250 o
    81 124 o
    286 0 o
    416 89 o
    450 251 [
    449 455 ]
    428 566 o
    330 692 o
    111 763 [
    80 768 v
    80 668 v
    109 662 ]
    350 428 [
    350 267 ]
    235 101 o
    168 244 o
    194 359 o
    298 403 o
    0 0 z
  EndSpiro
EndSplineSet
EndChar
StartChar: oslash
Encoding: 248 248 204
Width: 512
VWidth: 0
InSpiro: 1
Flags: HMW
LayerCount: 2
Fore
SplineSet
60 -64 m 1
 10 -64 l 1
 6.48641202089 2.64202453092 22.8556558759 69.9058602221 54.8178411203 128.488480925 c 0
 86.7800263648 187.071101629 134.023902295 235.612514802 182 282 c 2
 333 428 l 2
 362.891455204 456.901671919 392.356307834 486.878929082 413.88409847 522.450827601 c 0
 435.411889106 558.02272612 448.936342207 598.534113601 452 640 c 1
 502 640 l 1
 506.784544131 570.28149366 490.184681792 499.572094455 456.786085048 438.18727773 c 0
 423.387488304 376.802461005 373.572689423 326.228260112 323 278 c 2
 172 134 l 2
 143.826702237 107.132749154 116.048066172 79.2385934919 95.7690371123 46.0069089837 c 0
 75.4900080523 12.7752244755 62.7841951546 -25.16918579 60 -64 c 1
  Spiro
    60 -64 v
    10 -64 v
    182 282 [
    333 428 ]
    452 640 v
    502 640 v
    323 278 [
    172 134 ]
    0 0 z
  EndSpiro
EndSplineSet
Refer: 0 111 N 1 0 0 1 0 0 2
EndChar
StartChar: thorn
Encoding: 254 254 201
Width: 512
VWidth: 0
InSpiro: 1
Flags: HMW
LayerCount: 2
Fore
SplineSet
66 768 m 1
 66 -128 l 1
 166 -128 l 1
 166 768 l 1
 66 768 l 1
  Spiro
    66 768 v
    66 -128 v
    166 -128 v
    166 768 v
    0 0 z
  EndSpiro
449 330 m 2
 449 361.574000584 448.467589476 393.43464483 441.245404196 424.171553469 c 0
 434.023218916 454.908462107 420.146601483 484.226545364 399.7564961 508.333828815 c 0
 379.366390717 532.441112264 352.800253916 551.126698847 323.562834078 563.04688316 c 0
 294.32541424 574.967067473 262.572439967 580.313922561 231 580 c 0
 198.605732864 579.67790607 166.30040667 573.462008698 136 562 c 1
 156 467 l 1
 180.003874885 475.624336884 205.496130151 480.343247579 231 480 c 0
 247.587411893 479.77675588 264.235266617 477.311883649 279.821404403 471.63170934 c 0
 295.407542189 465.951535031 309.862107591 456.913988598 321.164475424 444.771149037 c 0
 332.466843257 432.628309476 340.383115069 417.481938494 344.525867289 401.418636365 c 0
 348.668619509 385.355334236 349 368.588914106 349 352 c 2
 349 220 l 2
 349 203.179691991 348.637127481 186.156404432 344.176543108 169.938329683 c 0
 339.715958735 153.720254933 331.195234141 138.564361884 319.202326908 126.770594987 c 0
 307.209419674 114.97682809 292.024399101 106.655423071 275.908416271 101.839007501 c 0
 259.792433441 97.0225919316 242.814125813 95.5440014739 226 96 c 0
 183.771590434 97.1452330438 142.326353843 108.573139444 103 124 c 1
 69 28 l 1
 118.551909077 7.10411789693 172.225916315 -4.6144150791 226 -4 c 0
 257.553699741 -3.63947188694 289.226712623 1.19032330632 318.786076865 12.2361339823 c 0
 348.345441107 23.2819446583 375.646306044 40.7954356246 396.901421141 64.1189437252 c 0
 418.156536237 87.4424518247 432.9437341 116.372091025 440.669439402 146.96750613 c 0
 448.395144704 177.562921234 449 209.444240655 449 241 c 2
 449 330 l 2
  Spiro
    449 330 ]
    231 580 o
    136 562 v
    156 467 v
    231 480 o
    349 352 [
    349 220 ]
    226 96 o
    103 124 v
    69 28 v
    226 -4 o
    449 241 [
    0 0 z
  EndSpiro
EndSplineSet
EndChar
StartChar: dotlessi
Encoding: 257 305 101
Width: 512
VWidth: 0
InSpiro: 1
Flags: W
HStem: 0 100<156 356> 476 100<156 306>
VStem: 156 150<476 576> 206 100<0 576>
AnchorPoint: "top" 256 576 basechar 0
LayerCount: 2
Fore
SplineSet
156 576 m 1xe0
 306 576 l 1
 306 476 l 1
 156 476 l 1
 156 576 l 1xe0
  Spiro
    156 576 v
    306 576 v
    306 476 v
    156 476 v
    0 0 z
  EndSpiro
156 100 m 1
 356 100 l 1
 356 0 l 1
 156 0 l 1
 156 100 l 1
  Spiro
    156 100 v
    356 100 v
    356 0 v
    156 0 v
    0 0 z
  EndSpiro
206 576 m 1xd0
 306 576 l 1xe0
 306 0 l 1
 206 0 l 1
 206 576 l 1xd0
  Spiro
    206 576 v
    306 576 v
    306 0 v
    206 0 v
    0 0 z
  EndSpiro
EndSplineSet
EndChar
StartChar: OE
Encoding: 262 338 125
Width: 512
VWidth: 0
InSpiro: 1
Flags: HMW
LayerCount: 2
Fore
SplineSet
160 672 m 0
 169.257844011 671.773920815 178.310492017 668.023978871 185.316456191 661.967969169 c 0
 192.322420365 655.911959467 197.288300087 647.726330766 200.387315965 638.999653958 c 0
 206.585347722 621.546300342 206 602.521208116 206 584 c 2
 206 184 l 2
 206 165.478791883 206.585347722 146.453699658 200.387315965 129.000346042 c 0
 197.288300087 120.273669234 192.322420366 112.088040533 185.316456191 106.032030831 c 0
 178.310492017 99.9760211286 169.257844011 96.2260791845 160 96 c 0
 150.581574408 95.7699993676 141.195921915 99.2027126057 133.870765719 105.127383705 c 0
 126.545609524 111.052054805 121.287235722 119.27564867 117.996344979 128.103427498 c 0
 111.414563493 145.758985154 112 165.157532972 112 184 c 2
 112 584 l 2
 112 602.842467028 111.414563492 622.241014846 117.996344979 639.896572502 c 0
 121.287235722 648.72435133 126.545609524 656.947945195 133.870765719 662.872616295 c 0
 141.195921914 668.797287394 150.581574408 672.230000632 160 672 c 0
  Spiro
    160 672 o
    206 584 [
    206 184 ]
    160 96 o
    112 184 [
    112 584 ]
    0 0 z
  EndSpiro
12 184 m 2
 12 161.368400448 12.2831469332 138.581868915 16.736314817 116.392714039 c 0
 21.1894827007 94.2035591638 29.8138780758 72.7231998615 43.0805591593 54.3878659042 c 0
 56.347240243 36.0525319472 74.1236345966 21.007907523 94.4050881478 10.9654008566 c 0
 114.686541699 0.922894190229 137.369005299 -4.16546032924 160 -4 c 0
 182.459613472 -3.83579267794 204.893955086 1.50233348262 224.91123072 11.6890835809 c 0
 244.928506354 21.8758336793 262.42702355 36.9564612092 275.47239853 55.2397703464 c 0
 288.51777351 73.5230794834 296.982311808 94.86737753 301.352762461 116.898273164 c 0
 305.723213115 138.929168799 306 161.539786257 306 184 c 2
 306 584 l 2
 306 606.460213743 305.723213115 629.070831202 301.352762461 651.101726836 c 0
 296.982311808 673.132622471 288.51777351 694.476920518 275.47239853 712.760229655 c 0
 262.42702355 731.043538792 244.928506354 746.124166322 224.91123072 756.31091642 c 0
 204.893955086 766.497666518 182.459613472 771.835792678 160 772 c 0
 137.369005299 772.165460329 114.686541699 767.077105809 94.4050881476 757.034599143 c 0
 74.1236345964 746.992092476 56.3472402428 731.947468052 43.0805591592 713.612134094 c 0
 29.8138780758 695.276800137 21.1894827008 673.796440835 16.736314817 651.60728596 c 0
 12.2831469333 629.418131084 12 606.631599552 12 584 c 2
 12 184 l 2
  Spiro
    12 184 ]
    160 -4 o
    306 184 [
    306 584 ]
    160 772 o
    12 584 [
    0 0 z
  EndSpiro
206 0 m 1
 476 0 l 1
 476 100 l 1
 206 100 l 1
 206 0 l 1
  Spiro
    206 0 v
    476 0 v
    476 100 v
    206 100 v
    0 0 z
  EndSpiro
206 656 m 1
 476 656 l 1
 476 756 l 1
 206 756 l 1
 206 656 l 1
  Spiro
    206 656 v
    476 656 v
    476 756 v
    206 756 v
    0 0 z
  EndSpiro
206 384 m 1
 423 384 l 1
 423 484 l 1
 206 484 l 1
 206 384 l 1
  Spiro
    206 384 v
    423 384 v
    423 484 v
    206 484 v
    0 0 z
  EndSpiro
206 756 m 1
 206 0 l 1
 306 0 l 1
 306 756 l 1
 206 756 l 1
  Spiro
    206 756 v
    206 0 v
    306 0 v
    306 756 v
    0 0 z
  EndSpiro
EndSplineSet
EndChar
StartChar: oe
Encoding: 261 339 124
Width: 512
VWidth: 0
InSpiro: 1
Flags: HMW
AnchorPoint: "top" 256 576 basechar 0
LayerCount: 2
Fore
SplineSet
160 480 m 0
 150.581574408 480.230000632 141.195921915 476.797287394 133.870765719 470.872616295 c 0
 126.545609524 464.947945195 121.287235722 456.72435133 117.996344979 447.896572502 c 0
 111.414563493 430.241014846 112 410.842467028 112 392 c 2
 112 184 l 2
 112 165.157532972 111.414563492 145.758985154 117.996344979 128.103427498 c 0
 121.287235722 119.27564867 126.545609524 111.052054805 133.870765719 105.127383705 c 0
 141.195921914 99.2027126056 150.581574408 95.7699993675 160 96 c 0
 169.257844011 96.2260791845 178.310492017 99.9760211287 185.316456191 106.032030831 c 0
 192.322420365 112.088040533 197.288300087 120.273669234 200.387315965 129.000346042 c 0
 206.585347722 146.453699658 206 165.478791884 206 184 c 2
 206 392 l 2
 206 410.521208117 206.585347722 429.546300342 200.387315965 446.999653958 c 0
 197.288300087 455.726330766 192.322420366 463.911959467 185.316456191 469.967969169 c 0
 178.310492017 476.023978871 169.257844011 479.773920816 160 480 c 0
  Spiro
    160 480 o
    112 392 [
    112 184 ]
    160 96 o
    206 184 [
    206 392 ]
    0 0 z
  EndSpiro
12 392 m 2
 12 414.631599552 12.2831469332 437.418131085 16.736314817 459.607285961 c 0
 21.1894827007 481.796440836 29.8138780758 503.276800139 43.0805591593 521.612134096 c 0
 56.347240243 539.947468053 74.1236345966 554.992092477 94.4050881478 565.034599143 c 0
 114.686541699 575.07710581 137.369005299 580.165460329 160 580 c 0
 182.459613472 579.835792678 204.893955086 574.497666517 224.91123072 564.310916419 c 0
 244.928506354 554.124166321 262.42702355 539.043538791 275.47239853 520.760229654 c 0
 288.51777351 502.476920517 296.982311808 481.13262247 301.352762461 459.101726836 c 0
 305.723213115 437.070831201 306 414.460213743 306 392 c 2
 306 184 l 2
 306 161.539786257 305.723213115 138.929168798 301.352762461 116.898273164 c 0
 296.982311808 94.8673775292 288.51777351 73.5230794824 275.47239853 55.2397703452 c 0
 262.42702355 36.9564612082 244.928506354 21.8758336785 224.91123072 11.6890835803 c 0
 204.893955086 1.50233348223 182.459613472 -3.83579267812 160 -4 c 0
 137.369005299 -4.16546032905 114.686541699 0.922894190635 94.4050881476 10.9654008572 c 0
 74.1236345964 21.0079075238 56.3472402428 36.0525319482 43.0805591592 54.3878659055 c 0
 29.8138780758 72.7231998626 21.1894827008 94.2035591647 16.736314817 116.39271404 c 0
 12.2831469333 138.581868916 12 161.368400448 12 184 c 2
 12 392 l 2
  Spiro
    12 392 ]
    160 580 o
    306 392 [
    306 184 ]
    160 -4 o
    12 184 [
    0 0 z
  EndSpiro
206 330 m 2
 206 385.378077244 205.997826195 442.812410094 229.083316314 493.149191727 c 0
 240.626061374 518.317582544 258.054804282 541.079410897 280.758511549 556.929475129 c 0
 303.462218816 572.779539361 331.341794119 581.306333513 359 580 c 0
 385.677840259 578.739970447 411.694264253 568.394098328 432.562284142 551.726147607 c 0
 453.430304031 535.058196886 469.114420432 512.416659053 479.458520315 487.793612269 c 0
 500.146720081 438.5475187 500 383.41516022 500 330 c 2
 500 238 l 1
 306 238 l 1
 306 338 l 1
 400 338 l 1
 400 352 l 2
 400 376.680553955 403.102929243 401.428856661 400.786182092 426.000434269 c 0
 399.627808516 438.286223074 396.405042516 450.648119473 389.368794174 460.785853202 c 0
 385.850670004 465.854720067 381.408522611 470.304871884 376.224083524 473.650346488 c 0
 371.039644437 476.995821092 365.11997175 479.214789996 359 480 c 0
 352.437274701 480.84201656 345.676282309 480.022833096 339.482033961 477.696969248 c 0
 333.287785613 475.3711054 327.681430642 471.563865207 323.074996972 466.814220581 c 0
 313.862129631 457.314931329 308.892233377 444.361659843 306.752742445 431.302716568 c 0
 302.473760577 405.18483002 306.000000004 378.466085535 306 352 c 2
 306 220 l 2
 306 206.553778142 306.138592143 193.037252059 308.445849507 179.790462043 c 0
 310.753106871 166.543672028 315.227955648 153.611783644 322.251745294 142.145866268 c 0
 336.299324586 119.214031517 360.612383549 103.186253664 387 98 c 0
 418.117341943 91.8841604362 451.592609206 100.02219833 477 119 c 1
 503 21 l 1
 467.546525081 2.47604514422 426.882920551 -6.07220370233 387 -3 c 0
 358.691738483 -0.819398764234 330.783004857 7.23135260261 305.963568453 21.0193281058 c 0
 281.144132049 34.807303609 259.557506801 54.3840428467 243.494180184 77.7951989453 c 0
 227.430853567 101.206355044 217.048004851 128.272441831 211.690915538 156.154591784 c 0
 206.333826226 184.036741736 206 212.607876235 206 241 c 2
 206 330 l 2
  Spiro
    206 330 ]
    359 580 o
    500 330 [
    500 238 v
    306 238 v
    306 338 v
    400 338 v
    400 352 ]
    359 480 o
    306 352 [
    306 220 ]
    387 98 o
    477 119 v
    503 21 v
    387 -3 o
    206 241 [
    0 0 z
  EndSpiro
EndSplineSet
EndChar
StartChar: gravecomb
Encoding: 256 768 96
Width: 512
VWidth: 0
InSpiro: 1
Flags: MW
AnchorPoint: "top" 256 576 mark 0
LayerCount: 2
Fore
SplineSet
185 670 m 1
 53 802 l 1
 195 802 l 1
 327 670 l 1
 185 670 l 1
  Spiro
    185 670 v
    53 802 v
    195 802 v
    327 670 v
    0 0 z
  EndSpiro
EndSplineSet
EndChar
StartChar: acutecomb
Encoding: 258 769 103
Width: 512
VWidth: 0
InSpiro: 1
Flags: HMW
AnchorPoint: "top" 256 576 mark 0
LayerCount: 2
Fore
SplineSet
327 670 m 1
 185 670 l 1
 317 802 l 1
 459 802 l 1
 327 670 l 1
  Spiro
    185 670 v
    317 802 v
    459 802 v
    327 670 v
    0 0 z
  EndSpiro
EndSplineSet
EndChar
StartChar: uni0302
Encoding: 259 770 104
Width: 512
VWidth: 0
InSpiro: 1
Flags: MW
AnchorPoint: "top" 256 576 mark 0
LayerCount: 2
Fore
SplineSet
318 670 m 1
 185 802 l 1
 327 802 l 1
 460 670 l 1
 318 670 l 1
  Spiro
    318 670 v
    185 802 v
    327 802 v
    460 670 v
    0 0 z
  EndSpiro
195 670 m 1
 53 670 l 1
 185 802 l 1
 327 802 l 1
 195 670 l 1
  Spiro
    195 670 v
    53 670 v
    185 802 v
    327 802 v
    0 0 z
  EndSpiro
EndSplineSet
EndChar
StartChar: tildecomb
Encoding: 272 771 182
Width: 512
VWidth: 0
InSpiro: 1
Flags: HMW
AnchorPoint: "top" 256 576 mark 0
LayerCount: 2
Fore
SplineSet
42 656 m 1
 142 656 l 1
 142 671 l 2
 142 677.931710722 142.118477229 684.937041226 143.821773126 691.656222473 c 0
 145.525069022 698.375403719 148.82069045 704.733689644 153.634189952 709.721558536 c 0
 158.447689454 714.709427427 164.687491325 718.258203649 171.375912811 720.078541957 c 0
 178.064334297 721.898880265 185.14668914 722.039588275 192 721 c 0
 205.519721459 718.949174611 218.004906777 712.589700812 229.658375732 705.435302554 c 0
 241.311844688 698.280904297 252.394021999 690.231184395 264 683 c 0
 286.317719224 669.094791583 311.289233863 658.597833361 337.520377715 656.764120015 c 0
 363.751521568 654.930406669 390.515526089 661.366077402 413 675 c 0
 433.104992174 687.191074971 449.681587055 705.355245938 459.140481714 726.881098559 c 0
 468.599376373 748.406951181 470 772.487598607 470 796 c 2
 470 810 l 1
 370 810 l 1
 370 793 l 2
 370 783.663209153 370.124142232 774.265679429 368.556887461 765.061366537 c 0
 366.989632691 755.857053645 363.414272014 746.784745969 357 740 c 0
 353.867308667 736.686371447 350.121141189 733.951943769 346 732 c 0
 311.609008512 755.941298733 276.353984726 779.121080122 238 796 c 0
 212.832665209 807.075705185 185.38074234 814.522089354 158 812 c 0
 140.349626104 810.37419236 123.130042568 804.681094693 107.798984624 795.785162394 c 0
 92.4679266798 786.889230095 78.9131074779 774.967212833 68 761 c 0
 58.4715372713 748.804933913 51.0500882581 734.897698776 46.8312327101 720.007685455 c 0
 42.6123771621 705.117672134 42 689.476150647 42 674 c 2
 42 656 l 1
  Spiro
    42 656 v
    142 656 v
    142 671 ]
    192 721 o
    264 683 o
    413 675 o
    470 796 [
    470 810 v
    370 810 v
    370 793 ]
    357 740 o
    346 732 v
    238 796 o
    158 812 o
    68 761 o
    42 674 [
    0 0 z
  EndSpiro
EndSplineSet
EndChar
StartChar: uni0308
Encoding: 260 776 116
Width: 512
VWidth: 0
InSpiro: 1
Flags: W
HStem: 644 116<89.4943 170.506 345.494 426.506>
VStem: 72 116<661.494 742.506> 328 116<661.494 742.506>
AnchorPoint: "top" 256 576 mark 0
LayerCount: 2
Fore
SplineSet
72 702 m 0
 71.9999999996 717.184364492 78.2508395903 732.275226208 88.987806691 743.012193309 c 0
 99.7247737917 753.749160409 114.815635508 760 130 760 c 0
 145.184364493 760 160.275226209 753.74916041 171.01219331 743.01219331 c 0
 181.749160411 732.275226209 188.000000001 717.184364493 188 702 c 0
 187.999999999 686.815635508 181.749160407 671.724773794 171.012193307 660.987806694 c 0
 160.275226206 650.250839594 145.184364492 644.000000003 130 644 c 0
 114.815635506 643.999999997 99.7247737873 650.250839585 88.9878066852 660.987806686 c 0
 78.2508395832 671.724773787 71.9999999939 686.815635506 72 702 c 0
  Spiro
    72 702 o
    130 760 o
    188 702 o
    130 644 o
    0 0 z
  EndSpiro
328 702 m 0
 328 717.184364492 334.25083959 732.275226208 344.987806691 743.012193309 c 0
 355.724773792 753.749160409 370.815635508 760 386 760 c 0
 401.184364493 760 416.275226209 753.74916041 427.01219331 743.01219331 c 0
 437.749160411 732.275226209 444.000000001 717.184364493 444 702 c 0
 443.999999999 686.815635508 437.749160407 671.724773794 427.012193307 660.987806694 c 0
 416.275226206 650.250839594 401.184364492 644.000000003 386 644 c 0
 370.815635506 643.999999997 355.724773787 650.250839585 344.987806685 660.987806686 c 0
 334.250839583 671.724773787 327.999999994 686.815635506 328 702 c 0
  Spiro
    328 702 o
    386 760 o
    444 702 o
    386 644 o
    0 0 z
  EndSpiro
EndSplineSet
EndChar
StartChar: uni030A
Encoding: 273 778 183
Width: 512
VWidth: 0
InSpiro: 1
Flags: HMW
AnchorPoint: "top" 256 576 mark 0
LayerCount: 2
Fore
SplineSet
341 735 m 0
 341.000000001 748.489511949 334.891770145 761.773647175 324.947834496 770.888748734 c 0
 315.003898847 780.003850294 301.489511949 785 288 785 c 0
 274.510488051 785 260.996101152 780.003850294 251.052165503 770.888748735 c 0
 241.108229854 761.773647175 234.999999999 748.489511949 235 735 c 0
 235.000000001 721.510488052 241.108229858 708.226352827 251.052165507 699.111251269 c 0
 260.996101155 689.99614971 274.510488052 685.000000003 288 685 c 0
 301.48951195 684.999999997 315.003898851 689.996149701 324.947834502 699.111251261 c 0
 334.891770152 708.22635282 341.000000006 721.51048805 341 735 c 0
  Spiro
    341 735 o
    288 785 o
    235 735 o
    288 685 o
    0 0 z
  EndSpiro
287 615 m 0
 253.998671582 615.228075007 220.835140335 626.582247588 195.865022251 648.160776232 c 0
 170.894904168 669.739304876 155.000000001 701.997883469 155 735 c 0
 154.999999999 768.002116532 170.894904166 800.260695125 195.86502225 821.83922377 c 0
 220.835140333 843.417752414 253.998671582 854.771924994 287 855 c 0
 320.337790091 855.230400321 353.994557117 844.109716014 379.387144118 822.506987994 c 0
 404.779731118 800.904259974 420.999999995 768.33858624 421 735 c 0
 421.000000005 701.661413757 404.779731132 669.095740015 379.38714413 647.493011992 c 0
 353.994557128 625.89028397 320.337790094 614.769599667 287 615 c 0
  Spiro
    287 615 o
    155 735 o
    287 855 o
    421 735 o
    0 0 z
  EndSpiro
EndSplineSet
EndChar
StartChar: uni0327
Encoding: 270 807 155
Width: 512
VWidth: 0
InSpiro: 1
Flags: HMW
AnchorPoint: "bottom" 320 0 mark 0
LayerCount: 2
Fore
SplineSet
107 -96 m 1
 135 -38 l 1
 146.877652705 -44.7915935949 160.291512791 -48.895432937 173.940894994 -49.8434534207 c 0
 187.590277196 -50.7914739043 201.512690509 -48.5920907548 214 -43 c 0
 221.540460783 -39.6232164695 228.509369504 -34.9697940882 234.488009719 -29.2674194064 c 0
 240.466649934 -23.5650447247 245.33003828 -16.8156198077 250 -10 c 2
 287 44 l 2
 291.122087573 50.0160197007 295.347786994 56.0162440305 300.533349374 61.1440156511 c 0
 305.718911755 66.2717872717 311.835836313 70.5016196868 318.60798911 73.2075475281 c 0
 332.152294706 78.6194032107 347.994610222 77.6027443329 361 71 c 0
 367.721532057 67.5875257524 373.733605308 62.7322542128 378.310772839 56.7428042315 c 0
 382.88794037 50.7533542501 385.976014743 43.6129267033 387.052123238 36.1519640181 c 0
 388.128231734 28.6910013328 387.15568411 20.9968944211 384.639095591 13.8912096609 c 0
 382.122507072 6.78552490065 378.095119289 0.328820719179 374 -6 c 2
 363 -23 l 2
 348.149773549 -45.950349969 331.557839681 -68.1920454068 310 -85 c 0
 281.534974435 -107.193265386 246.253970466 -120.582543743 210.215003417 -122.580433369 c 0
 174.176036369 -124.578322994 137.584186684 -115.167843743 107 -96 c 1
  Spiro
    135 -38 v
    214 -43 o
    250 -10 [
    287 44 ]
    361 71 o
    374 -6 [
    363 -23 ]
    310 -85 o
    107 -96 v
    0 0 z
  EndSpiro
EndSplineSet
EndChar
StartChar: A.base1
Encoding: 263 -1 128
Width: 512
VWidth: 0
InSpiro: 1
Flags: W
HStem: 0 21G<64 164 348 448> 284 100<128 384>
VStem: 64 100<0 284 384 496.065> 128 36<284 384> 348 100<0 284 384 496.046> 348 36<284 384>
AnchorPoint: "top" 256 640 basechar 0
LayerCount: 2
Fore
SplineSet
128 284 m 1xd4
 128 384 l 1
 384 384 l 1
 384 284 l 1
 128 284 l 1xd4
  Spiro
    128 284 v
    128 384 v
    384 384 v
    384 284 v
    0 0 z
  EndSpiro
258 697 m 1024
  Spiro
    258 697 {
    0 0 z
  EndSpiro
164 0 m 1xe8
 64 0 l 1
 64 457 l 2
 64 471.650413554 62.3526566687 486.370834287 64.0588108645 500.921561251 c 0
 64.9118879608 508.196924731 66.9322216794 515.374366904 70.4336371528 521.808552477 c 0
 73.9350526262 528.24273805 78.9045029622 533.737437484 84 539 c 2
 206 665 l 2
 213.085942739 672.31826873 219.97879654 679.902298098 228.031868089 686.140541467 c 0
 232.058403863 689.259663151 236.416114517 691.988036302 241.128895602 693.919772534 c 0
 245.841676687 695.851508766 250.906844166 696.9590846 256 697 c 0
 261.106513769 697.041022709 266.203677676 696.008520498 270.950228897 694.124796199 c 0
 275.696780119 692.2410719 280.087736012 689.533943796 284.12698943 686.409428225 c 0
 292.205496267 680.160397081 299.018602093 672.45471302 306 665 c 2
 424 539 l 2
 429.047436902 533.610363986 434.003009308 528.064287986 437.799609683 521.730993327 c 0
 441.596210059 515.397698667 444.224686531 508.390896494 445.74537703 501.165088854 c 0
 448.786758026 486.713473573 448.000000001 471.768181425 448 457 c 2
 448 0 l 1
 348 0 l 1
 348 405 l 2
 348 421.782611042 349.157189525 438.719973311 346.283813385 455.2547773 c 0
 344.847125315 463.522179293 342.177273632 471.597915497 338.109681062 478.937445387 c 0
 334.042088491 486.276975278 328.580954595 492.733665015 323 499 c 2
 266 563 l 2
 264.710115409 564.448291471 263.326143827 565.859392977 261.614025267 566.770436598 c 0
 259.901906707 567.68148022 257.936827803 568.10024224 256 568 c 0
 254.233620168 567.908579446 252.49073806 567.387636688 250.966708195 566.489979514 c 0
 249.44267833 565.592322341 248.187745971 564.310616244 247 563 c 2
 189 499 l 2
 183.359612545 492.776124188 177.841197815 486.353136993 173.748749021 479.018120727 c 0
 169.656300227 471.68310446 166.995878948 463.590836635 165.587445546 455.310322393 c 0
 162.770578743 438.749293909 163.999999998 421.798881005 164 405 c 2
 164 0 l 1xe8
  Spiro
    164 0 v
    64 0 v
    64 457 ]
    84 539 [
    206 665 ]
    256 697 o
    306 665 [
    424 539 ]
    448 457 [
    448 0 v
    348 0 v
    348 405 ]
    323 499 [
    266 563 ]
    256 568 o
    247 563 [
    189 499 ]
    164 405 [
    0 0 z
  EndSpiro
EndSplineSet
EndChar
StartChar: A.base2
Encoding: 264 -1 129
Width: 512
VWidth: 0
InSpiro: 1
Flags: HW
HStem: 0 21G<64 164 348 448> 284 100<128 384> 548 100<195.431 316.569>
VStem: 64 100<0 284 384 516.569> 128 36<284 384> 348 100<0 284 384 516.569> 348 36<284 384>
LayerCount: 2
Fore
SplineSet
164 0 m 1xf4
 64 0 l 1
 64 416 l 2
 64 444.514921742 64.4423363484 473.260613024 70.5943311677 501.103991442 c 0
 76.7463259869 528.947369859 88.5741449453 555.671903946 106.20992737 578.079044331 c 0
 123.845709794 600.486184715 147.042262666 618.406630158 172.981069972 630.250575342 c 0
 198.919877278 642.094520525 227.485078258 648.000000001 256 648 c 0
 284.514921742 648 313.080122723 642.094520524 339.018930028 630.25057534 c 0
 364.957737334 618.406630156 388.154290206 600.486184713 405.79007263 578.079044328 c 0
 423.425855055 555.671903943 435.253674013 528.947369857 441.405668832 501.10399144 c 0
 447.557663651 473.260613023 448 444.514921742 448 416 c 2
 448 0 l 1
 348 0 l 1
 348 436 l 2
 348 449.719952129 347.792814926 463.548453948 344.869097297 476.953265086 c 0
 341.945379667 490.358076224 336.319084427 503.240228511 327.896096731 514.070296133 c 0
 319.473109035 524.900363754 308.367143089 533.595815324 295.914633261 539.355336608 c 0
 283.462123434 545.114857891 269.719952129 548 256 548 c 0
 242.280047871 548 228.537876566 545.114857891 216.085366738 539.355336607 c 0
 203.632856911 533.595815323 192.526890965 524.900363753 184.103903269 514.070296131 c 0
 175.680915573 503.240228509 170.054620333 490.358076223 167.130902704 476.953265085 c 0
 164.207185074 463.548453947 164 449.719952129 164 436 c 2
 164 0 l 1xf4
  Spiro
    164 0 v
    64 0 v
    64 416 ]
    256 648 o
    448 416 [
    448 0 v
    348 0 v
    348 436 ]
    256 548 o
    164 436 [
    0 0 z
  EndSpiro
128 284 m 1xea
 128 384 l 1
 384 384 l 1
 384 284 l 1
 128 284 l 1xea
  Spiro
    128 284 v
    128 384 v
    384 384 v
    384 284 v
    0 0 z
  EndSpiro
EndSplineSet
EndChar
StartChar: E.base1
Encoding: 265 -1 133
Width: 512
VWidth: 0
InSpiro: 1
Flags: W
LayerCount: 2
Fore
SplineSet
64 0 m 1
 448 0 l 1
 448 100 l 1
 64 100 l 1
 64 0 l 1
  Spiro
    64 0 v
    448 0 v
    448 100 v
    64 100 v
    0 0 z
  EndSpiro
64 592 m 1
 448 592 l 1
 448 692 l 1
 64 692 l 1
 64 592 l 1
  Spiro
    64 592 v
    448 592 v
    448 692 v
    64 692 v
    0 0 z
  EndSpiro
64 336 m 1
 370 336 l 1
 370 436 l 1
 64 436 l 1
 64 336 l 1
  Spiro
    64 336 v
    370 336 v
    370 436 v
    64 436 v
    0 0 z
  EndSpiro
64 692 m 1
 64 0 l 1
 164 0 l 1
 164 692 l 1
 64 692 l 1
  Spiro
    64 692 v
    64 0 v
    164 0 v
    164 692 v
    0 0 z
  EndSpiro
EndSplineSet
EndChar
StartChar: I.base1
Encoding: 266 -1 138
Width: 512
VWidth: 0
Flags: W
VStem: 88 336
LayerCount: 2
Fore
SplineSet
88 592 m 5
 424 592 l 5
 424 692 l 5
 88 692 l 5
 88 592 l 5
  Spiro
    88 592 v
    424 592 v
    424 692 v
    88 692 v
    0 0 z
  EndSpiro
88 0 m 1
 424 0 l 1
 424 100 l 1
 88 100 l 1
 88 0 l 1
  Spiro
    88 0 v
    424 0 v
    424 100 v
    88 100 v
    0 0 z
  EndSpiro
206 692 m 5
 206 0 l 1
 306 0 l 1
 306 692 l 5
 206 692 l 5
EndSplineSet
EndChar
StartChar: N.base3
Encoding: 275 -1 191
Width: 512
VWidth: 0
InSpiro: 1
Flags: MW
LayerCount: 2
Fore
SplineSet
64 576 m 1
 64 0 l 1
 164 0 l 1
 164 576 l 1
 64 576 l 1
  Spiro
    64 576 v
    64 0 v
    164 0 v
    164 576 v
    0 0 z
  EndSpiro
348 576 m 1
 348 0 l 1
 448 0 l 1
 448 576 l 1
 348 576 l 1
  Spiro
    348 576 v
    348 0 v
    448 0 v
    448 576 v
    0 0 z
  EndSpiro
348 0 m 1
 448 0 l 1
 452.46743538 75.4468129099 435.911931905 151.726442483 402.512515381 219.525104217 c 0
 369.113098857 287.323765952 319.027760652 345.247446695 268 401 c 2
 214 460 l 2
 199.291127761 476.070804854 184.860786636 492.809598028 175.495121522 512.47952452 c 0
 166.129456409 532.149451012 161.893460273 554.316269196 164 576 c 1
 64 576 l 1
 62.8071664795 538.308397473 71.8359680168 500.486414407 88.9858586066 466.901283685 c 0
 106.135749196 433.316152963 131.339867379 404.633988976 157 377 c 2
 209 321 l 2
 250.099272299 276.739245217 290.433203123 230.576892452 316.522317949 176.101919436 c 0
 342.611432774 121.62694642 354.24533478 60.0762880924 348 0 c 1
  Spiro
    348 0 v
    448 0 v
    268 401 [
    214 460 ]
    164 576 v
    64 576 v
    157 377 [
    209 321 ]
    0 0 z
  EndSpiro
EndSplineSet
EndChar
StartChar: O.base2
Encoding: 267 -1 143
Width: 512
VWidth: 0
InSpiro: 1
Flags: HMW
LayerCount: 2
Fore
SplineSet
164 456 m 2
 164 184 l 2
 164 159.914456322 173.915124868 135.977227394 190.946176131 118.946176131 c 0
 207.977227394 101.915124868 231.914456322 92 256 92 c 0
 280.085543678 92 304.022772606 101.915124868 321.053823869 118.946176131 c 0
 338.084875132 135.977227394 348 159.914456322 348 184 c 2
 348 456 l 2
 348 480.085543678 338.084875132 504.022772606 321.053823869 521.053823869 c 0
 304.022772606 538.084875132 280.085543678 548 256 548 c 0
 231.914456322 548 207.977227394 538.084875132 190.946176131 521.053823869 c 0
 173.915124868 504.022772606 164 480.085543678 164 456 c 2
  Spiro
    164 456 v
    164 184 v
    256 92 o
    348 184 v
    348 456 v
    256 548 o
    0 0 z
  EndSpiro
64 456 m 2
 64 506.265482457 84.6924345069 556.221438483 120.235498012 591.764501988 c 0
 155.778561517 627.307565493 205.734517543 648 256 648 c 0
 306.265482457 648 356.221438483 627.307565493 391.764501988 591.764501988 c 0
 427.307565493 556.221438483 448 506.265482457 448 456 c 2
 448 184 l 2
 448 133.734517543 427.307565493 83.7785615174 391.764501988 48.2354980122 c 0
 356.221438483 12.6924345069 306.265482457 -8 256 -8 c 0
 205.734517543 -8 155.778561517 12.6924345069 120.235498012 48.2354980122 c 0
 84.6924345069 83.7785615174 64 133.734517543 64 184 c 2
 64 456 l 2
  Spiro
    64 456 v
    256 648 o
    448 456 v
    448 184 v
    256 -8 o
    64 184 v
    0 0 z
  EndSpiro
EndSplineSet
EndChar
StartChar: Y.base2
Encoding: 269 -1 153
Width: 512
VWidth: 0
InSpiro: 1
Flags: MW
LayerCount: 2
Fore
SplineSet
206 330 m 1
 206 0 l 1
 306 0 l 1
 306 330 l 1
 206 330 l 1
  Spiro
    206 330 v
    206 0 v
    306 0 v
    306 330 v
    0 0 z
  EndSpiro
258 191 m 1024
  Spiro
    258 191 {
    0 0 z
  EndSpiro
164 628 m 1
 64 628 l 1
 64 551 l 2
 64 536.749670807 64.5703373035 522.385634828 68.0549690681 508.567920705 c 0
 71.5396008328 494.750206581 77.6686101635 481.766572949 84 469 c 2
 206 223 l 2
 208.347574246 218.266366685 210.788544089 213.54251577 214.004181533 209.349895464 c 0
 217.219818977 205.157275158 221.170529085 201.522290722 225.663162395 198.741169519 c 0
 234.648429014 193.178927114 245.432597225 191.059627081 256 191 c 0
 266.601002939 190.940183328 277.457249737 192.960403738 286.475508183 198.533181855 c 0
 290.984637405 201.319570914 294.936718452 204.984558023 298.127594866 209.217112576 c 0
 301.31847128 213.449667129 303.707535085 218.220793482 306 223 c 2
 424 469 l 2
 430.239108634 482.006955288 437.024370555 494.810626675 441.80163913 508.422572436 c 0
 446.578907704 522.034518196 448 536.574073256 448 551 c 2
 448 628 l 1
 348 628 l 1
 348 583 l 2
 348 566.545853332 347.224574541 549.939501077 342.814173385 534.087456912 c 0
 338.403772229 518.235412746 330.79275406 503.491788252 323 489 c 2
 266 383 l 2
 265.525655665 382.117885973 265.024344973 381.239071162 264.346947142 380.50133145 c 0
 263.66954931 379.763591739 262.831391944 379.17634694 261.91055319 378.782413324 c 0
 260.068875683 377.994546092 258.002032399 377.933840405 256 378 c 0
 254.173862112 378.060346947 252.302066662 378.249385748 250.664592716 379.060003053 c 0
 249.845855743 379.465311706 249.106757542 380.030270629 248.502224032 380.715211918 c 0
 247.897690522 381.400153208 247.438522765 382.198561843 247 383 c 2
 189 489 l 2
 181.098459538 503.440746362 173.440601879 518.177612849 169.078216503 534.050202147 c 0
 164.715831128 549.922791444 164 566.538848851 164 583 c 2
 164 628 l 1
  Spiro
    164 628 v
    64 628 v
    64 551 ]
    84 469 [
    206 223 ]
    256 191 o
    306 223 [
    424 469 ]
    448 551 [
    448 628 v
    348 628 v
    348 583 ]
    323 489 [
    266 383 ]
    256 378 o
    247 383 [
    189 489 ]
    164 583 [
    0 0 z
  EndSpiro
EndSplineSet
EndChar
StartChar: uni030A.base1
Encoding: 274 -1 184
Width: 512
VWidth: 0
InSpiro: 1
Flags: HW
HStem: 615 70<181.755 328.994> 785 70<181.755 328.994>
VStem: 91 80<697.964 772.036> 341 80<697.642 772.358>
LayerCount: 2
Fore
SplineSet
341 735 m 0
 341.222176757 740.575347768 339.395605562 746.17545238 336.09003378 750.670678786 c 0
 332.784461998 755.165905191 328.094054306 758.541197679 322.963947353 760.735706255 c 0
 312.703733447 765.124723408 301.159545733 765 290 765 c 2
 222 765 l 2
 210.840454267 765 199.296266553 765.124723408 189.036052647 760.735706255 c 0
 183.905945694 758.541197679 179.215538002 755.165905191 175.90996622 750.670678786 c 0
 172.604394438 746.17545238 170.777823243 740.575347768 171 735 c 0
 171.215703869 729.587084189 173.35056435 724.305315414 176.79082327 720.12072412 c 0
 180.231082189 715.936132825 184.895116874 712.852341547 189.930616279 710.854860265 c 0
 200.001615091 706.859897702 211.165576022 707 222 707 c 2
 290 707 l 2
 300.834423978 707 311.998384909 706.859897702 322.069383721 710.854860265 c 0
 327.104883126 712.852341547 331.768917811 715.936132825 335.209176731 720.12072412 c 0
 338.64943565 724.305315414 340.784296131 729.587084189 341 735 c 0
  Spiro
    341 735 o
    290 765 [
    222 765 ]
    171 735 o
    222 707 [
    290 707 ]
    0 0 z
  EndSpiro
255 640 m 0
 219.755793192 640.092198328 183.547901786 641.706053929 151.073573663 655.402061631 c 0
 134.836409601 662.250065483 119.808005753 672.476515101 108.82418565 686.256803539 c 0
 97.840365546 700.037091978 91.2054769957 717.379034285 91 735 c 0
 90.7927117528 752.776292107 97.1412751997 770.421784272 108.001302285 784.496561045 c 0
 118.861329371 798.571337817 133.91473401 809.073425714 150.237909864 816.115688102 c 0
 182.884261572 830.200212877 219.44512284 831.906042247 255 832 c 0
 290.900802087 832.094871898 327.823756254 830.594213466 360.88191993 816.592984751 c 0
 377.411001769 809.592370394 392.682533233 799.082845913 403.714148367 784.922245102 c 0
 414.745763501 770.761644291 421.208909179 752.949248027 421 735 c 0
 420.792898806 717.206092051 414.041428032 699.699574471 402.88587567 685.835242445 c 0
 391.730323308 671.970910419 376.485092949 661.738067611 360.04312838 654.931610962 c 0
 327.159199241 641.318697664 290.590104465 639.906896823 255 640 c 0
  Spiro
    255 640 o
    91 735 o
    255 832 o
    421 735 o
    0 0 z
  EndSpiro
EndSplineSet
EndChar
